<svg xmlns="http://www.w3.org/2000/svg" width="358" height="358" xmlns:v="https://vecta.io/nano"><style><![CDATA[.B{stroke-opacity:0}.C{fill-opacity:0}.D{stroke:#000}.E{stroke-opacity:.98}.F{fill-opacity:.98}.G{stroke-opacity:.99}.H{fill-opacity:.99}.I{stroke-opacity:.97}.J{fill-opacity:.97}]]></style><g fill="none" stroke-width=".3"><use href="#B" class="B D"/><use href="#C" stroke="#37b776" class="G"/><use href="#D" stroke="#36b97c"/><use href="#E" stroke="#34b778" class="G"/><use href="#F" stroke="#238b90"/><use href="#G" stroke="#afdd2c"/><use href="#H" class="B D"/><use href="#I" stroke="#2b8793"/><use href="#J" stroke="#51c56b"/><use href="#K" stroke="#c7e01c"/><use href="#L" stroke="#45c073"/><use href="#M" stroke="#3cbd78"/><use href="#N" stroke="#21aa80" class="G"/><use href="#O" stroke="#2a8492"/><use href="#P" stroke="#2e8093"/><use href="#Q" stroke="#c8e11b"/><use href="#R" stroke="#dee413"/><use href="#S" stroke="#aedd2c"/><use href="#T" class="B D"/><use href="#U" stroke="#24828e" class="G"/><use href="#V" stroke="#2b7c91"/><use href="#W" stroke="#e0e413"/><use href="#X" stroke="#b3de28"/><use href="#Y" class="B D"/><use href="#Z" stroke="#2e7691"/><use href="#a" class="B D"/><use href="#b" stroke="#cddd16" class="E"/><use href="#c" stroke="#e8e513"/><use href="#d" class="B D"/><use href="#e" stroke="#a9d72b" class="E"/><use href="#f" stroke="#29728d" class="G"/><use href="#g" stroke="#1ea67f" class="E"/><use href="#h" stroke="#54c668"/><use href="#i" class="B D"/><use href="#j" stroke="#2e8193"/><use href="#k" stroke="#e6e513"/><g class="D B"><use href="#l"/><use href="#m"/><use href="#n"/></g><use href="#o" stroke="#cfe218"/><use href="#p" class="B D"/><use href="#q" stroke="#2f7592"/><use href="#r" stroke="#2e7792"/><g class="D B"><use href="#s"/><use href="#t"/><use href="#u"/></g><use href="#v" stroke="#e3e511"/><g class="D B"><use href="#w"/><use href="#x"/><use href="#y"/><use href="#z"/><use href="#AA"/><use href="#AB"/><use href="#AC"/><use href="#AD"/><use href="#AE"/><use href="#AF"/></g><use href="#AG" stroke="#347894"/><use href="#AH" class="B D"/><use href="#AI" stroke="#e6e514"/><use href="#AJ" class="B D"/><use href="#AK" stroke="#2f7191"/><use href="#AL" stroke="#26978e"/><g class="D B"><use href="#AM"/><use href="#AN"/></g><use href="#AO" stroke="#2f7191"/><use href="#AP" stroke="#327392"/><use href="#AQ" stroke="#326f92"/><g class="D"><use href="#AR" class="B"/><use href="#AS" class="B"/><use href="#AT" stroke-opacity=".01"/></g><use href="#AU" stroke="#80cb45" class="I"/><use href="#AV" stroke="#199d88"/><g class="D B"><use href="#AW"/><use href="#AX"/></g><use href="#AY" stroke="#e0e412"/><use href="#AZ" stroke="#347193"/><use href="#Aa" stroke="#376e93"/><g class="D B"><use href="#Ab"/><use href="#Ac"/></g><use href="#Ad" stroke="#dbe414"/><use href="#Ae" stroke="#326d92"/><use href="#Af" class="B D"/><use href="#Ag" stroke="#326991"/><use href="#Ah" class="B D"/><use href="#Ai" stroke="#d7e313"/><g class="D B"><use href="#Aj"/><use href="#Ak"/></g><use href="#Al" stroke="#d1e216"/><g class="D B"><use href="#Am"/><use href="#An"/><use href="#Ao"/></g><use href="#Ap" stroke="#315e8a" class="I"/><use href="#Aq" stroke="#366791"/><use href="#Ar" stroke="#c8e11b"/><use href="#As" stroke="#d1e217"/><g class="D B"><use href="#At"/><use href="#Au"/></g><use href="#Av" stroke="#c7e11b"/><use href="#Aw" stroke="#badf23"/><use href="#Ax" class="B D"/><use href="#Ay" stroke="#c9e11c"/><use href="#Az" stroke="#395f90"/><g class="D B"><use href="#BA"/><use href="#BB"/><use href="#BC"/></g><use href="#BD" stroke="#c1e020"/><use href="#BE" class="B D"/><use href="#BF" stroke="#bbdf24"/><g class="D B"><use href="#BG"/><use href="#BH"/></g><use href="#BI" stroke="#227e8d" class="G"/><use href="#BJ" stroke="#3b508c"/><use href="#BK" stroke="#3d578f"/><use href="#BL" stroke="#452d7b" class="E"/><use href="#BM" class="B D"/><use href="#BN" stroke="#3e4187"/><use href="#BO" class="B D"/><use href="#BP" stroke="#4c3080"/><use href="#BQ" stroke="#29718e" class="G"/><use href="#BR" stroke="#187272" stroke-opacity=".85"/><use href="#BS" stroke="#a5da34"/><use href="#BT" stroke="#38b573" class="E"/><use href="#BU" class="B D"/><use href="#BV" stroke="#5cc963"/><use href="#BW" class="B D"/><use href="#BX" stroke="#57c865"/><g class="D B"><use href="#BY"/><use href="#BZ"/></g><use href="#Ba" stroke="#20a881" class="E"/><use href="#Bb" stroke="#4f2b7c"/><use href="#Bc" stroke="#2d678c" class="E"/><use href="#Bd" stroke="#51c668"/><use href="#Be" stroke="#2e5f88" class="I"/><use href="#Bf" stroke="#1b908d"/><use href="#Bg" class="B D"/><use href="#Bh" stroke="#4d2375"/><use href="#Bi" stroke="#502979"/><use href="#Bj" stroke="#325886" stroke-opacity=".95"/><use href="#Bk" stroke="#502576"/><use href="#Bl" stroke="#4f277a"/><use href="#Bm" stroke="#4c1c6f"/><g class="D B"><use href="#Bn"/><use href="#Bo"/><use href="#Bp"/><use href="#Bq"/></g><use href="#Br" stroke="#512979"/><g class="D B"><use href="#Bs"/><use href="#Bt"/><use href="#Bu"/><use href="#Bv"/></g><use href="#Bw" stroke="#4e1e70"/><use href="#Bx" stroke="#502375"/><use href="#By" stroke="#1b9b88" class="E"/><use href="#Bz" stroke="#3abc77"/><g class="D B"><use href="#CA"/><use href="#CB"/><use href="#CC"/></g><use href="#CD" stroke="#542371"/><g class="D B"><use href="#CE"/><use href="#CF"/><use href="#CG"/></g><use href="#CH" stroke="#4e1a6c"/><use href="#CI" stroke="#521e6e"/><use href="#CJ" stroke="#32b780"/><g class="D B"><use href="#CK"/><use href="#CL"/></g><use href="#BD" x="-41" y="90" stroke="#2bb380"/><use href="#CM" class="B D"/><use href="#CN" stroke="#2fb481"/><use href="#CO" stroke="#4e1566"/><use href="#CP" stroke="#4e2275"/><use href="#CQ" stroke="#4a2474" class="E"/><use href="#CR" stroke="#29b183"/><use href="#CS" stroke="#28b084"/><use href="#CD" x="16" y="29" stroke="#531c6b"/><use href="#CT" class="B D"/><use href="#CU" stroke="#4e1f71"/><use href="#CV" class="B D"/><use href="#CW" stroke="#434187"/><g class="D B"><use href="#CX"/><use href="#CY"/></g><use href="#CZ" stroke="#531d6b"/><g class="D B"><use href="#Ca"/><use href="#Cb"/><use href="#Cc"/><use href="#Cd"/><use href="#Ce"/><use href="#Cf"/></g><use href="#Cg" stroke="#26b083"/><use href="#Ch" stroke="#4f1668"/><use href="#Ci" stroke="#23ae84"/><g class="D B"><use href="#Cj"/><use href="#Ck"/></g><use href="#Cl" stroke="#21aa87"/><use href="#Cm" stroke="#4b1d72"/><use href="#Cn" stroke="#4f1d6f"/><use href="#Co" stroke="#1ca389"/><use href="#Cp" stroke="#22ad85"/><use href="#Cq" stroke="#4b1367"/><use href="#Cr" stroke="#26948f" class="G"/><use href="#Cs" stroke="#1f9f8c"/><use href="#Ct" stroke="#25ac88"/><use href="#Cu" stroke="#337894"/><use href="#Cv" stroke="#3b578f"/><use href="#Cw" stroke="#1fa589"/><use href="#Cx" stroke="#501868"/><use href="#Cy" stroke="#4d2478"/><use href="#Cz" stroke="#503181"/><use href="#DA" stroke="#3b568e"/><use href="#DB" class="B D"/><use href="#DC" stroke="#552978"/><use href="#DD" stroke="#3b588f"/><use href="#DE" stroke="#1f9c8d"/><use href="#DF" stroke="#2f6e91"/><use href="#DG" stroke="#502c7d"/><use href="#DH" stroke="#376190"/><use href="#DI" stroke="#4e1e70"/><use href="#DJ" stroke="#375d8f"/><use href="#DK" stroke="#2aa192"/><use href="#DL" stroke="#2e7291"/><use href="#DM" stroke="#1f988e"/><use href="#DN" stroke="#3b568e"/><use href="#Bz" x="-126" y="112" stroke="#396c94"/><use href="#DO" stroke="#307392"/><use href="#DP" stroke="#336490"/><use href="#DQ" stroke="#337793"/><use href="#DR" stroke="#405c92"/><use href="#DS" stroke="#337293"/></g><use href="#B" class="C"/><use href="#C" fill="#37b776" class="H"/><use href="#D" fill="#36b97c"/><use href="#E" fill="#34b778" class="H"/><use href="#F" fill="#238b90"/><use href="#G" fill="#afdd2c"/><use href="#H" class="C"/><use href="#I" fill="#2b8793"/><use href="#J" fill="#51c56b"/><use href="#K" fill="#c7e01c"/><use href="#L" fill="#45c073"/><use href="#M" fill="#3cbd78"/><use href="#N" fill="#21aa80" class="H"/><use href="#O" fill="#2a8492"/><use href="#P" fill="#2e8093"/><use href="#Q" fill="#c8e11b"/><use href="#R" fill="#dee413"/><use href="#S" fill="#aedd2c"/><use href="#T" class="C"/><use href="#U" fill="#24828e" class="H"/><use href="#V" fill="#2b7c91"/><use href="#W" fill="#e0e413"/><use href="#X" fill="#b3de28"/><use href="#Y" class="C"/><use href="#Z" fill="#2e7691"/><use href="#a" class="C"/><use href="#b" fill="#cddd16" class="F"/><use href="#c" fill="#e8e513"/><use href="#d" class="C"/><use href="#e" fill="#a9d72b" class="F"/><use href="#f" fill="#29728d" class="H"/><use href="#g" fill="#1ea67f" class="F"/><use href="#h" fill="#54c668"/><use href="#i" class="C"/><use href="#j" fill="#2e8193"/><use href="#k" fill="#e6e513"/><use href="#l" class="C"/><use href="#m" class="C"/><use href="#n" class="C"/><use href="#o" fill="#cfe218"/><use href="#p" class="C"/><use href="#q" fill="#2f7592"/><use href="#r" fill="#2e7792"/><use href="#s" class="C"/><use href="#t" class="C"/><use href="#u" class="C"/><use href="#v" fill="#e3e511"/><use href="#w" class="C"/><use href="#x" class="C"/><use href="#y" class="C"/><use href="#z" class="C"/><use href="#AA" class="C"/><use href="#AB" class="C"/><use href="#AC" class="C"/><use href="#AD" class="C"/><use href="#AE" class="C"/><use href="#AF" class="C"/><use href="#AG" fill="#347894"/><use href="#AH" class="C"/><use href="#AI" fill="#e6e514"/><use href="#AJ" class="C"/><use href="#AK" fill="#2f7191"/><use href="#AL" fill="#26978e"/><use href="#AM" class="C"/><use href="#AN" class="C"/><use href="#AO" fill="#2f7191"/><use href="#AP" fill="#327392"/><use href="#AQ" fill="#326f92"/><use href="#AR" class="C"/><use href="#AS" class="C"/><use href="#AT" fill-opacity=".01"/><use href="#AU" fill="#80cb45" class="J"/><use href="#AV" fill="#199d88"/><use href="#AW" class="C"/><use href="#AX" class="C"/><use href="#AY" fill="#e0e412"/><use href="#AZ" fill="#347193"/><use href="#Aa" fill="#376e93"/><use href="#Ab" class="C"/><use href="#Ac" class="C"/><use href="#Ad" fill="#dbe414"/><use href="#Ae" fill="#326d92"/><use href="#Af" class="C"/><use href="#Ag" fill="#326991"/><use href="#Ah" class="C"/><use href="#Ai" fill="#d7e313"/><use href="#Aj" class="C"/><use href="#Ak" class="C"/><use href="#Al" fill="#d1e216"/><use href="#Am" class="C"/><use href="#An" class="C"/><use href="#Ao" class="C"/><use href="#Ap" fill="#315e8a" class="J"/><use href="#Aq" fill="#366791"/><use href="#Ar" fill="#c8e11b"/><use href="#As" fill="#d1e217"/><use href="#At" class="C"/><use href="#Au" class="C"/><use href="#Av" fill="#c7e11b"/><use href="#Aw" fill="#badf23"/><use href="#Ax" class="C"/><use href="#Ay" fill="#c9e11c"/><use href="#Az" fill="#395f90"/><use href="#BA" class="C"/><use href="#BB" class="C"/><use href="#BC" class="C"/><use href="#BD" fill="#c1e020"/><use href="#BE" class="C"/><use href="#BF" fill="#bbdf24"/><use href="#BG" class="C"/><use href="#BH" class="C"/><use href="#BI" fill="#227e8d" class="H"/><use href="#BJ" fill="#3b508c"/><use href="#BK" fill="#3d578f"/><use href="#BL" fill="#452d7b" class="F"/><use href="#BM" class="C"/><use href="#BN" fill="#3e4187"/><use href="#BO" class="C"/><use href="#BP" fill="#4c3080"/><use href="#BQ" fill="#29718e" class="H"/><use href="#BR" fill="#187272" fill-opacity=".85"/><use href="#BS" fill="#a5da34"/><use href="#BT" fill="#38b573" class="F"/><use href="#BU" class="C"/><use href="#BV" fill="#5cc963"/><use href="#BW" class="C"/><use href="#BX" fill="#57c865"/><use href="#BY" class="C"/><use href="#BZ" class="C"/><use href="#Ba" fill="#20a881" class="F"/><use href="#Bb" fill="#4f2b7c"/><use href="#Bc" fill="#2d678c" class="F"/><use href="#Bd" fill="#51c668"/><use href="#Be" fill="#2e5f88" class="J"/><use href="#Bf" fill="#1b908d"/><use href="#Bg" class="C"/><use href="#Bh" fill="#4d2375"/><use href="#Bi" fill="#502979"/><use href="#Bj" fill="#325886" fill-opacity=".95"/><use href="#Bk" fill="#502576"/><use href="#Bl" fill="#4f277a"/><use href="#Bm" fill="#4c1c6f"/><use href="#Bn" class="C"/><use href="#Bo" class="C"/><use href="#Bp" class="C"/><use href="#Bq" class="C"/><use href="#Br" fill="#512979"/><use href="#Bs" class="C"/><use href="#Bt" class="C"/><use href="#Bu" class="C"/><use href="#Bv" class="C"/><use href="#Bw" fill="#4e1e70"/><use href="#Bx" fill="#502375"/><use href="#By" fill="#1b9b88" class="F"/><use href="#Bz" fill="#3abc77"/><use href="#CA" class="C"/><use href="#CB" class="C"/><use href="#CC" class="C"/><use href="#CD" fill="#542371"/><use href="#CE" class="C"/><use href="#CF" class="C"/><use href="#CG" class="C"/><use href="#CH" fill="#4e1a6c"/><use href="#CI" fill="#521e6e"/><use href="#CJ" fill="#32b780"/><use href="#CK" class="C"/><use href="#CL" class="C"/><use href="#BD" x="-41" y="90" fill="#2bb380"/><use href="#CM" class="C"/><use href="#CN" fill="#2fb481"/><use href="#CO" fill="#4e1566"/><use href="#CP" fill="#4e2275"/><use href="#CQ" fill="#4a2474" class="F"/><use href="#CR" fill="#29b183"/><use href="#CS" fill="#28b084"/><use href="#CD" x="16" y="29" fill="#531c6b"/><use href="#CT" class="C"/><use href="#CU" fill="#4e1f71"/><use href="#CV" class="C"/><use href="#CW" fill="#434187"/><use href="#CX" class="C"/><use href="#CY" class="C"/><use href="#CZ" fill="#531d6b"/><use href="#Ca" class="C"/><use href="#Cb" class="C"/><use href="#Cc" class="C"/><use href="#Cd" class="C"/><use href="#Ce" class="C"/><use href="#Cf" class="C"/><use href="#Cg" fill="#26b083"/><use href="#Ch" fill="#4f1668"/><use href="#Ci" fill="#23ae84"/><use href="#Cj" class="C"/><use href="#Ck" class="C"/><use href="#Cl" fill="#21aa87"/><use href="#Cm" fill="#4b1d72"/><use href="#Cn" fill="#4f1d6f"/><use href="#Co" fill="#1ca389"/><use href="#Cp" fill="#22ad85"/><use href="#Cq" fill="#4b1367"/><use href="#Cr" fill="#26948f" class="H"/><use href="#Cs" fill="#1f9f8c"/><use href="#Ct" fill="#25ac88"/><use href="#Cu" fill="#337894"/><use href="#Cv" fill="#3b578f"/><use href="#Cw" fill="#1fa589"/><use href="#Cx" fill="#501868"/><use href="#Cy" fill="#4d2478"/><use href="#Cz" fill="#503181"/><use href="#DA" fill="#3b568e"/><use href="#DB" class="C"/><use href="#DC" fill="#552978"/><use href="#DD" fill="#3b588f"/><use href="#DE" fill="#1f9c8d"/><use href="#DF" fill="#2f6e91"/><use href="#DG" fill="#502c7d"/><use href="#DH" fill="#376190"/><use href="#DI" fill="#4e1e70"/><use href="#DJ" fill="#375d8f"/><use href="#DK" fill="#2aa192"/><use href="#DL" fill="#2e7291"/><use href="#DM" fill="#1f988e"/><use href="#DN" fill="#3b568e"/><use href="#Bz" x="-126" y="112" fill="#396c94"/><use href="#DO" fill="#307392"/><use href="#DP" fill="#336490"/><use href="#DQ" fill="#337793"/><use href="#DR" fill="#405c92"/><use href="#DS" fill="#337293"/><defs ><path id="B" d="M0 358h358V0H0v358M230 62c.53-1.28-.97-1.86-1-3-5.49 4.27-7.75-6.3-1-5-.53 1.28.97 1.86 1 3 2.88-1.82 4.74.27 7 2 7.03-16.34 14.3-1.73 4 7 1.91 1.03 3.78-.13 6 1 .77 4.8-.65 8.24-2 12 3.93-1.61 10.25 1.91 11-4-4.64-2-11.1-20.61 1-19 .65 4.72 10.37 5.15 8 11-2.65.78-4.73-1.94-7 0 4.46 7.61.47 12.52-1 20 7.16-1.6 1.8 5.49 2 7 3.49-2.77 10.6-15.11 13-4 5.43-9.1 15.56 5.81 5 7 3.6 4.34 1.44 12.19 10 11 1.11 2.97-1.9 4.41-2 7 2.67.6 5.29 1.41 8 2 .8-3.05 1.22-6.25 3-9-2.89-.35-5.18-1.38-8 0-7.64-7.26-2.46-15.87-2-24-4.73 2.04-11.45 2.06-9-5 6.07 1.61 4.35-3.23 5-7-9.9 7.23-7.75-5.24-7-12-8.65 2.62-12.66-3.61-17-8-1.15-2.23-.42-5.79 3-5-.31 5.57 5.72 3.93 6 9 22.28-10.19 2.59 6.2 18 6-2.04 4.13-1.62 5.14 3 6-1.21 4.54-4.2 11.09 3 12-2.11 3.32.42 7.6-3 10 1.56 7.28 10.43 1.64 16 4 .88 3.7-3.25 5.52-1 9-2.32 1.38-5.49.52-6 4 4.56.68 3.26 6.25 7 8 1.67-4.08 3.24-8.3 2-13 4.37-5.8 8.42-5.44 15-5 .71 2.97 2.01 4.25 5 5-2.09 14.12-23.46 11.48-28 20 3.59.21 11.01-1.69 11 4-5.78-.54-5.68 7.17-11 7 3.13 11.03-6.43 5.47-8-1-1.35 1.04-2.01 3.49-4 4 4.07 3.91-.01 10.81-5 10 1.19 3.88 5.39 2.29 8 4 .34 3.11-4.38 3.88-4 7 7.85-6.79 7.5 10.55 17 5 1.13 4.2-2.15 5.72-5 3-15.84 8.93 19.19 13.9 9 0 2.07-2.09 4.23-.23 6 1 2.96-5.66-13.69-7.78-4-15 3.62 2.98 5.85-.03 10 0 .53 2.46-.58 5.13-3 6 .4 5.78 3.01 6.69 8 7-.52-2.83.12-6.95 4-6-.35 2.86.27 5.39 1 8-4.49 2.24-9.94-1.48-14 2 2.39 2.91-.92 5.93-1 9h6c.54-8.15 9.21 1.68 1 1-3.13 2.73-1.78 5.47 2 6-1.25 15.22-14.79-14.05-17 1 5.19 1.24 5.3 8.72 0 10 6.27 7.32-7.62 7.4-12 6-1.01 3.88 3.21 4.46 6 4 1.06 2.72-1.18 6.68 3 8 .23 2.88-4.11 3.79-3 7 6.33-.86 5.67-10.05 5-15 8.24-5.96 11.25.21 6 7 6.44-.93 7.79-7.5 15-7 .03-5.91-18.41-13.4-3-12 7.03-2.13 11.01-9.94 17-13-1.01 4.15-.72 6.87 3 9-1.68 3.03-2.09 5.51-1 9-3.43 5.1-11.15 6.99-13 15 11.6-9.68 11.08 7.95-1 1 .55 2.28 1.81 4.81 0 7-6.76-3.64-4.41 9.47-12 3 4.31 5.1-4.78 5.01-3 10-4.28 1.23-6.91 3.98-12 3 .52 6.04-6.99 5.31-11 6-1.42 1.67-.89 3.96-1 6-4.84 1.77-5.57-4.09-10-4 3.24 3.49 3.55 8.99 2 14 6.07 2.9 8.81-4.05 8-9 3.74-4.8 13.14-3.59 11 4-14.7-1.06-1.46 16.4-12 18-3.26-6.17-12.73-.18-15-10-3.22-.05-4.14 3.63-3 6 6.98-3.14 7.92 5.76 7 11 3.05-1.7 12.79-6.79 13 1-7.37-.08-3.3 19.91-11 10-3.69 4.33-10.57 2.96-7-4-10.38-.24-3.22-6.78 3-5-3.99-3.03-1.28-7.01-5-10-15.11 11.42 2.19-18.12-13-11 4.74 3.91-.41 9.6-2 14 2.69 5.15 11.42-1.18 10 7-4.15 3.65-8.05 22.91-12 4-1.53 3.67-3.33 7.08-1 11-5.08 14.83-24.06-4.08-12-10-3.31-2.76-1.37-6.56-1-10h-5c.4 3.58.09 9.35-5 8-1.25-2.59-.7-6.26-5-5-2.25 5.06 3.74 10.74-3 13 .47 4.25 2.58 10.5 8 8-5.69-3.22-.15-9.98 4-5-2.53 3.6-.14 3.59 1 7 1.28.27 2.72-.77 3-2 8.59.67-2.34 9.58 5 11-3.29 3.81.44 12.51-7 12-1.01 1.09-2.22 2.59-3 4-2.78-.61-5.28-2.07-8-3 .09-3.4 1.54-6.09-1-9 1.3-1.63 3.54-3.44 3-6-3.28.23-3.28-3.79-4-6-2.93.11-5.18 2.27-6 5-3.39 1.34-3.28-3.22-6-3-3.04 4.17 5.42 4.6 8 6 3.54 7.44-5.64 17.56-4 5-3.21-3.82-7.69-1.46-8 3-3.47.65-5.71-3.11-6-6 4.79-1.39 6.44-8.04 0-8-.62 2.37-2.43 3.6-4 5 6 11.22-12.3 4.88-2 0-2.17-4.85 1.13-11.61-4-14-.41-3.63 3.57-6.03 6-8-.07-5.99-11.19-7.34-7-14h-3v4c4.62 8.62-3.19 10.12-7 13-3.58 1.44-6.25-2.22-9-1 12.69 7.25 18.99 4.35 1 14 4.73 2.81 4.32 7.17 0 11-2.25.89-5.1-2.26-6 1 .11 2-1.95 4.17-4 4 9.97 12.59-18.38 5.67-7-3-10.15-1.44-2.91-10.94-4-18-2.85 1.39-3.79 6.63-5 10-7.41 1.63-4.7-9.44 0-10-3.22-.34-5.45-6.59-9-4 5.21 15.83-29.86 8.03-12 3-.5-2.67-3.69-2.94-3-6-4.35-1.1-8.65 2.71-12-1-1.6 7.54-10.2 1.15-15 1 .62 2.83-2.16 5.62-5 5-.89-2.14-2.06-4.76-5-4-.23 3.91-4.46 2.25-7 2-2.04 13.48-17.19 6.12-4-1-1.8-3-2.37-8.63 3-8 1.19 3.88 5.39 2.29 8 4-.7-5.01 7.46-.78 6-6-21.4 4.98-7.3-14.71 2-1 6.01.76 18.62 1 19-7-5.23.96-6.44-6.12-7-10 5.67-1.23 9.22-6.2 12-11 7.47-.9 9.64 5.48 15 8 .03-1.1 1.34-.81 2-1-.08-.49-.24-1.7 0-2-2.98-.05-4.7-3.44-5-6-7.81-7.78-22.71 11.05-19-5-1.49 11.04-13.1 10.08-8-3-4.95.28-5.55 2.73-8 6-5.54.25-9.46-4.85-15-5 .32 4.83 12.97 9.6 2 12 2.98 3.42-3.27 9.71 3 11 2.8 10.16-18.69 5.36-8 0-.64-2.16-.59-5.88-4-5-2.38 10.23-12.66-3.09-2-2 .89-4.2 5.83-8.46 3-13-4.43 5.23-7.62-1.32-12-1 2.55 3.3.35 6.73-3 8 6.47 11.21-5.78 6.53-7-2-19-1.15-5.49-14.71 4-4 3.38-.62 5.45-2.52 4-6-4.01 2.67-7.34-1.22-11 0-11.34-8.96 4.21-19.63 4-5 5.96-.57 11.48-1.3 14 5-1.18-3.82-1.58-8 3-9-6.71-3.1-14.31-14.12-2-8-5.46-9.07-5.6-9.58 1-17-1.75-1.3-5.44-.74-5-4-1.05-5.8 11.2-3.49 12-11-7.3-4.88-10.79-4.28-17 0-.9-3.34-1.53-6.23-6-5-1.51-3.49 1.4-8.61-3-11 .12 4.52.04 11.09-7 10-1.38-2.92-5.41-9.18 1-9 .21-2.42-.92-5.79-4-5 .16 7.97-16.8 2.36-9-4-7.82-6.53 8.76-7.24 2 0 .24 1.28 2.44 2.97 3 1 3.39-5.22 6.16-9.73 11-14 .94-3.37-3.76-5-6-3-1.21 10.95-6.09-.55-8-4-4.09-8.87 8.97-16.83 3-5 3.46 2.97 7.56 1.89 11 0-6.12-9.97 12.93-22.46 7-11 2.4 3.93-.41 7.24-1 11 15.02-.27 8.28-10.16 19-17 2.03-1.95-1.14-3.56-3-3-2.37-8.62 9.67-5.66 5 1 3.7-.23 9.75 3.16 10-3-3.3-1.15-8.35-3.67-8-8 3.66-.9 4.2-4.86 5-8-6.9-.34-5.24-8.39-2-12-8.46 5.75-8.37-7.03-5-12 4.83.88 5.97-5.72 8-9-10.14 1.79-6.42-8.3 1-7-7.04.66-4.24-6.98-9-9 2.42-11.48 15.44-8.5 9 3 3.33 3.17 11.04-.05 9 7 7.38-6.09 18.79 9.1 4 7 2.23 3.04 3.29 8.3 6 10 .55-1.01 1.98-1.44 3-2-2.41-5.1.27-9.59 6-7 .78-2.97-1.27-4.35-3-6 .26-2.78 2.79-4.89 2-8-7.19 3.62-23.94-19.9-9-12 1.68-2.66 4.12-4.91 7-6-3.67-2.48-3.83-8.42 2-7-.5 4.29 6.02 4.44 5 9-6.62-.74-3.24 7.42-9 8 7.26 15.38 7.11-12.25 16-6-3.82-3.07-4.75-11.54 3-7-1.9 2.92 1.2 4.83 4 5 .07 4.89 2.78 7.27 7 9-4.57 4.21 6.01 12.48-5 11 1.02 3.99 1.76 9.06 4 11 .2-5.1 6.08-2.09 9-2-1.74-4.65-7.56-9.54-3-14-1.19-4.06-11.61-17.29-2-19 1.99-5.13-5.46-17.19 3-17 1.46-3.39 5.85.97 7-3-4.01-4.29-9.4-5.3-15-3-1.93 1.33-3.58 3.67-4 6 7.49 3.83-2.91 6.95-2 12 9.5-.27 5.22 11.32-2 5 1.62-7.86-22.23-13.23-9-18 .78 3.45 3.88 4.55 7 5 1.28-6.21 2.84-13.58 9-16 1.52-4.68 7.76-3.78 12-4 .78 2.65-1.94 4.73 0 7 2.76-1.16 5.75-1.4 8 1 1.24-2.04 3.18-3.73 6-3 5.71 4.04 3.24 12.36-3 6 1.05 6.92.15 9-7 10 3.24 1.72 8.22 4.06 12 2 .01-18.79 8.14 20.7 15 6 4.64-.31 4.66 6.3 0 6 3 3.19.82 6.47 0 10-3.21.25-4.8-3.09-8-1 9.39 2.47.57 8.74-1 13l8-4c-.85-3.11 1.81-5.15 2-8h6c.94-3.2 3.91-1.31 6-1 2.25-4.95 3.38-10.62 9-13-4.89-5.21-12.14 3.34-18-1 .59-7.1 3.13-12.37 2-19-3.88 1.01-4.46-3.21-4-6-23.22-2.75 18.75.61 26-5 .56-3.62 4.09-3.09 7-3 .13 10.38 11.43-2.21 16 5-5.64.46-5.74 3.39-6 8-4.96 4.52-11.85 5.71-5-3-7.72-.37-12.18.21-19-1 2.68 2.23 1.17 6.77 5 8-.39 6.62-11.5 3.37-11 10 2.32-1.38 5.49-.52 6-4 5.04 2.95 17.15-2.89 15 7-3.55-.53-8.41 1.25-9 5 4.36 1.35 6.22 2.69 7-3 3.35 1.26 7.17.82 6-4 2.44-.26 4.52-1.76 7-2-.41 5.12 5.86 6.92 3 12 14.55 1.5 1.95 8.06-5 3-.22 3.83 6.6 11.12-1 11-.59-6.68-6.62-2.11-11-3 .57 6.29 7.57 7.16 12 4 1.79 3.19 6.47 3.48 8 7 1.68-1.86.32-7.27 5-6M152 9c7 9.52-11.06 2.79 0 0m83 18c-12.47-3.26 1.09-15.07 0 0m-126-6c1.36 5.81-3.93 5.13-7 3 1.75-1.63 4.34-3.18 7-3m114 10c5.49-1.18 6.2 6.98 0 5-.55-3.1-3.24-3.32-6-3-1.26-9.93 5.14-16.26 6-2m31-7c-9.96 8.55-11.87-6.23 0 0m-87-1c4.07 10.27-11.87-.49 0 0m39 1c2.37 9.59-11.04-.48 0 0m-105 8c3.84 11.8-12.51.52 0 0m-13 2c4.63 11.35-12.07 1.48 0 0m166 4c3.28-.07 7.75-4.67 9 1-2.8.97-2.86 3.82-4 6-4.75.21-6.38-4.33-10-6-3.43 10.27-7.64.28-4-5 2.87 1.17 8.8-.42 9 4m16 1c-1.51-9.92 9.32.95 0 0m-31 1c-4.4-.05-4.69 5.52-9 5-4.53-8.38 5.92-13.74 9-5M81 40c7.6 9.48-12.07 3.26 0 0m196 1c7.09 7.6-10.42 3.43 0 0m-45 8c11.98-14.56 10.17 8.84 0 0M61 55c5.37 6.61-7.63 16.91 2 20 .55 2.37-1.53 5.14-4 5-10.87-5.6-7.83-6.77-7-16 2.36-14.6 34.53-18.96 9-9m236 0c-2.14 2.02-4.41-.86-7 0-.1-2.97-5.03-4.79-2-8 2.92 2.83 6.67 4.81 9 8M95 59c4.51 10.62-10.84 1.68 0 0m198 5c2.56 2.32 4.88.95 8 1 4.43 5.07-.45 10.81 4 15 3.99-9.09 9.36-2 4 4-4.18-.91-5.51-1.54-10 0 .52-6.21 3.69-18.07-7-14-8.77-4.68 1.22-17.39 1-6m-31 13c3.81-2.41 6.06-7.3 5-12 11.77-4.02-2.72 27.59-5 12M48 67c1.02 3.4-1.64 5.94-5 5 1.74-1.66 1.98-5.23 5-5m15 7c-1.41-13.25 13.27 1.37 0 0m231-1c7.08 7.06-9.22 3.74 0 0M64 85c3.87 11.34-12.23.09 0 0m258 1c6.04 9.53-10.54 6.01 0 0M45 88c7.09 9.35-10.57 4.1 0 0m5 9c10.97-11.26 3.79 22.16 0 0m7-2c15.8 4.12-4.77 27.15 0 0m-16 0c5.92 22.69-13.14 11.19 0 0m293 14c-10.49 4.52-2.82-11.69 0 0m-281-2c4.08 11.71-12.65.53 0 0m-29 1c4.62 10.67-10.51 2.06 0 0m301 3c4.08 8.64-9.28 2.05 0 0m-270 8c6.15 10.04-6.87 8.9-6 0-23.55 2.27 26.45-8.39 6 0m-22 4c-16.72-1.89 9.96-13.93 5.26.75 10.18 11.73-12.92 9.32-5.26-.75m293 1c3.3-.24 5.35-1.69 6-5 11.61.46-6.43 15.21-6 5m-12 1c3.01 8.43-10.19-.25 0 0m-284 6c4.28 14.07-17.51 5.09 0 0m285 10c.36 12.07-7.36 2.97-5-5-1.72 2.96-7.98 6.49-7-1 3.34.76 6.26-.64 7-4 8.43.39 18.89 9.08 5 10m16-9c6.6 8.99-11.31 1.87 0 0m-5 23c-8.91-.37 1.76-9.03-1-13 16.89-7.09 3.3 6.31 1 13m-31-5c-8.96 3.18-4.02-6.88 2-1 9.63-18.19 4.15 20.17-2 1m46-4c6.45 7.32-8.84 3.8 0 0M20 160c-3.17.03-6.12-.87-9-2 .83-3.84-3.3-5.97-2-10 6.53-2.19 4.76 8 11 6 3.37-15.65 10.95 2.12 0 6m326-4c4.62 9.88-10.75 1.27 0 0m-15 2c10.31-.66-.85 10.56 0 0M12 170c8.86-2.15 2.34 11.5-1 4-5.5 1.63-3.78-4.75-4-8 3.02-.61 2.57 3.5 5 4m332 5c0 8.9-9.74-1.32 0 0m-15 2c3.91 8.32-10.09.62 0 0M8 181c1.42 2.26 3.6 6.02 0 8-1.5-1.64-1.72-6.43 0-8m340 3c.05 3.09-.32 6.73-2 9-3.12-2.52-1.29-7.43 2-9M44 199c-1.23 3.49-2.69 6.96-2 11-1.9 3.78-18.77 14.6-14 1-7.66-3.32-8.58 10.41-16 9-4.2-9.76 9.05-11.21 13-15 4.48-.51 8.76 2.01 10 6 .34-3.32 4.8-13.27-2-12 .08-16.25 31.9 5.9 11 0m-13-2c6.82 10.5-11.06 4.17 0 0m-15 4c7.56 10.35-12.33 3.82 0 0m40 0c5.4 12.21-11.32 2.28 0 0m-3 7c7.89 12.51-13.41 4.28 0 0m-7 21c-21.66 5.64 3.02-21.71 0 0m9-10c3.84 12.66-14.44-.64 0 0m282 2c3.78 11.13-11.89.46 0 0m-313 9c4.59 12.07-12.92.45 0 0m11 4c5.26 13.14-13.17.82 0 0m-8 6c7.73 10.49-11.39 4.46 0 0m290 3c6.49 9.81-11.56 2.44 0 0m-12 3c4.62 9.88-10.75 1.27 0 0m10 6c8.35 14.43-14.42 2.44 0 0m-288 1c13.08-1.52-1.48 13.21 0 0m67 0c9.93 8.23-10.54 7.36 0 0m206 12c-4-12.77 10.74-10.2 4.07 1.07-1.31 11.74-19.27 1.04-4.07-1.07m-5-7c9.14 8.18-10.94 5.09 0 0m-255 1c4.59 12.07-12.92.45 0 0m51 10c1.22 1.49 4.37 2.37 4 5 6.62-4.89 9.56 7.7 1 5-.71-4.3-3.29-1.31-6-1-1.72-1.97-2.37-4.95-5-6 1.46-3.93.86-6.98-4-7 .4-12.41 26.67 4 10 4m-41-3c6.74 11-13.67 2.05 0 0m266 10c-3.14 14.43-26.89 10.3-7 5-.53-3.45 3.93-5.46 7-5m-248 3c4.22 12.35-13.83-.57 0 0m229 1c2.68 10.75-12.27-.63 0 0m-13 11c13.97 8.29-19.01 14.57 0 0m-173 4c4.49 16.85-15.72 1.44 0 0m-15 1c8.71 14.7-13.29 4.28 0 0m171 1c7.77 13.82-15.59.23 0 0m30 0c-.14 2.33-2.61 4.94-5 5-1.02-3.4 1.64-5.94 5-5m-213 8c10.63-3.02 4.39 6.51 2 11-14.22 3.24-6.4-28.9-2-11m169 5c13.78 5.6-.48 10.7-6 2-3.7-10.77 10.28-14.98 6-2m33-3c-4.19-10.49 11.39-3.04 0 0m-108-5c4.72 12.05-12.07 1.64 0 0m2 3c18.54-9.38 1.94 19.43 0 0m94-1c2.21 15.73-15.88 5.69 0 0m-200 8c-11.45-4.16 4.4-10.75 0 0m39-6c28.31 16.46-12.25 11.92 0 0m20 8c-5.94 6.69-8.38-2.65-7-8 7.42-2.04 4.47 4.78 7 8m7-3c10.76 18.28-17.89 10.65 0 0m-31 10c-12.69 1.41 1.6-12.91 0 0m83-1c-5.16 14.9-13.69-14.78 0 0m61 4c-21.93 3.7.44-18.08 0 0m-76-2c-6.41 19.87-14.08-16.27 0 0m-53 7c8.28 9.4-11.07 6.52-1 1-7.31-12.48 13.23-9.27 1-1m81-2c1.09 3.61-2.1 5.51-5 4 .88 4.48 3.18 13.88-5 12 .51-4.68-1.02-9.63 4-12-11.59-7.9 3.17-15.8 6-4m-95 6c-5.85-3.95-16.39-4.3-19-12 6.74 4.38 19.84-.42 19 12m32-7c16.18 7.38-1.19 23.51 0 0m111 2c-.08 2.61-3.84 3.44-6 4 .1-3.46 2.74-6.01 6-4m-75 3c3.8 10.45-12.19-.13 0 0m66 1c-.42 3.25-5.24 3.54-8 4-.75-4.17 5.07-3.95 8-4m-104 1c4.57 10.54-11.87.18 0 0m71 0c3.78 11.13-11.89.46 0 0m9 8c2.72-15.78 19.28-.59 0 0m-54-3c-.5 3 .57 5.55 2 8-5.43 2.38-11.38-.81-17-1-2.34-10.25 7.8-12.58 15-7m13-1c8.21 9.84-11.55 5 0 0m9 1c9.81 7.71-10.06 8.04 0 0m-7 8c-2.28 1.54-7.79 1.72-10 0 3.1-4.07 5.92 1.47 10 0z"/><path id="C" d="M185 55c1.4 1.21 3.26.98 5 1-1.09 4.38-2.98 10.8 2 13-.81 2.04-3.27 2.97-4 5 6.5 2.2-3.16 12.2 5 12-3.66 7.81 3.99 13.37 0 21 3.67-.59 3.37 4.24 7 5-3.1 3.25-.27 8.25 1 12 10.65-.86-1.25 17.45 10 19-2.71 4.77 3.39 8.62 7 5-2 6.2 5.04 10.55 6 17 2.97-1.11 4.41 1.9 7 2-1.96 1.89-.14 3.91 0 6 .45-.15 1.51-.08 2 0-2.34-2.05-1.92-4.41-1-7-4.56.05-3.37-8.37 0-11-1.39-.26-.78-2.05-1-3 .55-1.82-1.75-2.47-2-4 2.7-2.52 5.96-5.73 5-10-7.31 2.2-7.65-8.55 0-6-1.51-4.39 2.02-5.71 3-9-4.64 1.46-5.75-2.12-5-6 .13-.8 1.09-1.11 1-2-1.29-4.53-4.05-9.19-1-14-4.02-3.58-1.27-6.75-1-11-2.51-.22-5.8-1.83-5-5 1-.11 2.73.47 3-1-1.6-.53-.72-2.75-1-4-.48-3.77 2.92-9.01 4-14-2.99-1.88 1.45-2.86 1-5-1.28-.53-1.86.97-3 1-4.68-1.27-3.32 4.14-5 6-1.53-3.52-6.21-3.81-8-7-4.43 3.16-11.43 2.29-12-4 4.38.89 10.41-3.68 11 3 7.6.12.78-7.17 1-11 6.95 5.06 19.55-1.5 5-3 2.86-5.08-3.41-6.88-3-12-2.48.24-4.56 1.74-7 2 1.17 4.82-2.65 5.26-6 4-.78 5.69-2.64 4.35-7 3 .59-3.75 5.45-5.53 9-5 2.15-9.89-9.96-4.05-15-7-.51 3.48-3.68 2.62-6 4-.5-6.63 10.61-3.38 11-10-3.83-1.23-2.32-5.77-5-8 6.82 1.21 11.28.63 19 1-6.85 8.71.04 7.52 5 3 .26-4.61.36-7.54 6-8-4.57-7.21-15.87 5.38-16-5-2.91-.09-6.44-.62-7 3-7.25 5.61-49.22 2.25-26 5-.46 2.79.12 7.01 4 6 1.13 6.63-1.41 11.9-2 19 5.86 4.34 13.11-4.21 18 1-5.62 2.38-6.75 8.05-9 13m5-36c.01 11.63-10.43 3.7 0 0m23 32c-5.51 1.53-6.62-2.02-5-6 3.49-.82 5.2 3.17 5 6m-15-4c4.16 9.41-9.99.77 0 0m-5 22c1.17-2.98 3.03-5.51 5-8 9.49 3.17 1 8.67-5 8m27 1c-4.21 6.36 5.72 9.78 5 16-7.71 2.8-6.32-9.41-13-8 2.89-2.94 1.93-9.52 8-8m-13 4c-.8 3.12-.7 7.49-5 5 .14-2.33 2.61-4.94 5-5m-6 2c-1.02 3.1-3.41 6.73-7 7-1.72-5.33 3.69-5.35 7-7m7 17c-1.89 2.03-3.61 1.84-6 1 2.64-3.07-.21-6.14-1-9 6.42-1.98 5.69 4.14 7 8m18 2c-3.04-.07-4.61 3.3-4 6-2.33-2.24-4.94-5.75-9-6 4.52 1.84 12.11-9.23 13 0z"/><path id="D" d="M152 9c-11.06 2.79 7 9.52 0 0z"/><path id="E" d="M129 15c-.59 2.27.85 3.9 1 6 5.6-2.3 10.99-1.29 15 3-1.15 3.97-5.54-.39-7 3 4.85 1.71.7 8.19 3 12 6.87-3.82 7.16 5.86 1 7-.53 1.28.97 1.86 1 3 4.63-1.71 3.47 4 7 5-2.03 1.89-1.84 3.61-1 6-1.81-.14-4.08.44-5 2 .23.16 0 1 0 1-.36 4.01 4.19 5.14 7 3 .51 2.19 2.34 5.95-1 7 1.11 2.97-1.9 4.41-2 7 2.12-.16 7.12 1.2 5 4h3c.21 3.01 1.56 5.77 1 9-1.32 3.38-1 7.27-1 11 6.2-3.32.22 3.08 5 2-3.71 9.11.77 19.18 9 24-2.14 7.99 4.1 16.27 10 19-5.49 3.41-1.37 9.86 4 6 2.16-4.2-4.73-7.3-4-12 4.26-1.57 2.75-6.5 3-10-3.61.83-1.54-2.61-5-3-.97-2.89 3.54-4.37 1-7 5.45-5.77 6.76-20.11 1-25 .32-4.19 3.84-4.7 4-9-1.39-.26-.78-2.05-1-3-10.85.36.2-11.87-4-17-1.68.71-3.08 2.01-5 2-.83-3.84 3.3-5.97 2-10 2.23-.52 3.73 1.54 6 1 .16-2.52-4.31-2.68-3-6h-6c-.19 2.85-2.85 4.89-2 8l-8 4c1.57-4.26 10.39-10.53 1-13 3.2-2.09 4.79 1.25 8 1 .82-3.53 3-6.81 0-10 4.66.3 4.64-6.31 0-6-6.86 14.7-14.99-24.79-15-6-3.78 2.06-8.76-.28-12-2 7.15-1 8.05-3.08 7-10 6.24 6.36 8.71-1.96 3-6-2.82-.73-4.76.96-6 3-2.25-2.4-5.24-2.16-8-1-1.94-2.27.78-4.35 0-7-4.24.22-10.48-.68-12 4m42 64c-8.13 3.15-14.04.23-7-7 4.46.66 6.92 2.03 7 7m2 8c-.73 4.38.07 8.56 5 9-3.87 3.56-.82 7.74-3 12-2.93-5.64-11.08 1.31-12-6 3.54-2.77 8.36.81 11-3-2.47-2.51-1.56-6.53-5-8 1.18-1.85.73-4.89 4-4z"/><path id="F" d="M130 21c-.15-2.1-1.59-3.73-1-6-6.16 2.42-7.72 9.79-9 16-3.12-.45-6.22-1.55-7-5-13.23 4.77 10.62 10.14 9 18 7.22 6.32 11.5-5.27 2-5-.91-5.05 9.49-8.17 2-12 .42-2.33 2.07-4.67 4-6z"/><path id="G" d="M235 27c1.09-15.07-12.47-3.26 0 0z"/><path id="H" d="M190 19c-10.43 3.7.01 11.63 0 0z"/><path id="I" d="M109 21c-2.66-.18-5.25 1.37-7 3 3.07 2.13 8.36 2.81 7-3z"/><path id="J" d="M223 31c-.86-14.26-7.26-7.93-6 2 2.76-.32 5.45-.1 6 3 6.2 1.98 5.49-6.18 0-5z"/><path id="K" d="M254 24c-11.87-6.23-9.96 8.55 0 0z"/><path id="L" d="M167 23c-11.87-.49 4.07 10.27 0 0z"/><path id="M" d="M206 24c-11.04-.48 2.37 9.59 0 0z"/><path id="N" d="M131 79c-.12 1.83-.26 4.46 2 5 1.76.05 3.07-1.53 5-1-2.64 3.02-1.48 6.68-4 9-2.39.56.61 6.04 0 9 .15.45 0 1 0 1 3.27 4.68 5.19 11.62 8 17-.39-2.29 2.07-3.41 4-3-.64 2.16-.59 5.88-4 5 2.18 2.85 5.73 3.62 9 2-4.23 4.23-.77 18.81 5 21-1.53 2.49.61 4.63-1 7 1.96 1.92 3.75-1.39 6-1 2.24 5.24.13 13.03 6 16 4.77-2.3 22.94.09 12-9 1.83.12 4.46.26 5-2-5.37 3.86-9.49-2.59-4-6-5.9-2.73-12.14-11.01-10-19-8.23-4.82-12.71-14.89-9-24-4.78 1.08 1.2-5.32-5-2 0-3.73-.32-7.62 1-11-1.53-1.13-3.45-.91-5-2-.29-2.49 1.64-4.39 1-7 2.12-2.8-2.88-4.16-5-4 .1-2.59 3.11-4.03 2-7-4.64-.05-9.11-3.44-10-8 1.34-.73 2.64-1.34 4-2 0 0 .23-.84 0-1-1.57-.96-3.25-2.32-4-4 7.16-.39 3.54-6.63 3-9-.03-1.14-1.53-1.72-1-3-3.7-1.2-.6-4.53-1-7-2.3-3.81 1.85-10.29-3-12-8.46-.19-1.01 11.87-3 17-9.61 1.71.81 14.94 2 19-4.56 4.46 1.26 9.35 3 14-2.92-.09-8.8-3.1-9 2m13-1c5.55 10.55-6.34 11.36 0 0z"/><path id="O" d="M101 32c-12.51.52 3.84 11.8 0 0z"/><path id="P" d="M88 34c-12.07 1.48 4.63 11.35 0 0z"/><path id="Q" d="M254 38c-.2-4.42-6.13-2.83-9-4-3.64 5.28.57 15.27 4 5 3.62 1.67 5.25 6.21 10 6 1.14-2.18 1.2-5.03 4-6-1.25-5.67-5.72-1.07-9-1z"/><path id="R" d="M270 39c9.32.95-1.51-9.92 0 0z"/><path id="S" d="M239 40c-3.08-8.74-13.53-3.38-9 5 4.31.52 4.6-5.05 9-5z"/><path id="T" d="M141 39c.4 2.47-2.7 5.8 1 7 6.16-1.14 5.87-10.82-1-7z"/><path id="U" d="M98 87c2.97-1.11 4.41 1.9 7 2 .37 1.54-1.43 2.4-1 4 2.39-1.6 6.1 4.69 4 7 2.21.73 1.66-2.74 4-2 1.27 4.02 1.82 9.23 1 13 1.96-.81 4.08-2.27 6-1-.9 2.37-4.33 2.34-5 5 4.49-2.13 6.52 1.96 7 6 1.96-1.02-1.52-4.45 2-5 .13 3.8 5.43 10.18-1 13 9.37-2.49 1.67 9.26 11 9-3.7 4.35-2.05 10.29-1 16-.47-12.49 7.06-24.69-1-36 2.31-1.14 3.77-3.53 4-6-2.33-.26-4.25-3.54-4-6 1.47-.83 3.25-2.07 3-4 0 0 .15-.55 0-1-2.86-3.65-2.08-8.54-1-13v-4c-2.26-.54-2.12-3.17-2-5-2.24-1.94-2.98-7.01-4-11 11.01 1.48.43-6.79 5-11-4.22-1.73-6.93-4.11-7-9-2.8-.17-5.9-2.08-4-5-7.75-4.54-6.82 3.93-3 7-8.89-6.25-8.74 21.38-16 6 5.76-.58 2.38-8.74 9-8 1.02-4.56-5.5-4.71-5-9-5.83-1.42-5.67 4.52-2 7-2.88 1.09-5.32 3.34-7 6-14.94-7.9 1.81 15.62 9 12 .79 3.11-1.74 5.22-2 8 1.73 1.65 3.78 3.03 3 6-5.73-2.59-8.41 1.9-6 7-1.02.56-2.45.99-3 2m20-29c1.61 2.35 5.28 3.14 4 7-5.07-2.81-8.87 2.81-5 7-7.12 5.41-7.51-5.46-5-10 3.55 1.2 3.53-3.12 6-4m1 14c8.98 1.95-1.79 11.85 0 0m-5 8c3.39 5.68-3.86 4.26-7 6 .56-3.34 4.97-4.05 7-6m10 3c4.78 10.98-11.3.83 0 0m-4 18c-2.12-.97-5.73-2.93-6-6 3.5-.7 5.24 3.4 6 6z"/><path id="V" d="M81 40c-12.07 3.26 7.6 9.48 0 0z"/><path id="W" d="M277 41c-10.42 3.43 7.09 7.6 0 0z"/><path id="X" d="M232 49c10.17 8.84 11.98-14.56 0 0z"/><path id="Y" d="M213 51c.2-2.83-1.51-6.82-5-6-1.62 3.98-.51 7.53 5 6z"/><path id="Z" d="M61 55c25.53-9.96-6.64-5.6-9 9-.83 9.23-3.87 10.4 7 16 2.47.14 4.55-2.63 4-5-9.63-3.09 3.37-13.39-2-20z"/><path id="a" d="M198 47c-9.99.77 4.16 9.41 0 0z"/><path id="b" d="M258 94c-1.05 3.22 1.25 3.64 3 5h6c-1.53 5.76 4.9 6.87 5 12 3.87-2.01 9.79 1.11 11 5-3.15 1.5-8.53-3.3-9 3 1.18 2.14-2.21 4.72 0 6 3.01.44 1.36-3.58 3-5 3.08-.69 5.05 3.82 8 1v3c1.54 2.29 3.98 4.09 4 8 1.57 6.47 11.13 12.03 8 1 5.32.17 5.22-7.54 11-7 .01-5.69-7.41-3.79-11-4 4.54-8.52 25.91-5.88 28-20-2.99-.75-4.29-2.03-5-5-6.58-.44-10.63-.8-15 5 1.24 4.7-.33 8.92-2 13-3.74-1.75-2.44-7.32-7-8 .51-3.48 3.68-2.62 6-4-2.25-3.48 1.88-5.3 1-9-5.57-2.36-14.44 3.28-16-4 3.42-2.4.89-6.68 3-10-7.2-.91-4.21-7.46-3-12-4.62-.86-5.04-1.87-3-6-15.41.2 4.28-16.19-18-6-.28-5.07-6.31-3.43-6-9-3.42-.79-4.15 2.77-3 5 4.34 4.39 8.35 10.62 17 8-.75 6.76-2.9 19.23 7 12-.65 3.77 1.07 8.61-5 7-2.45 7.06 4.27 7.04 9 5-.46 8.13-5.64 16.74 2 24 2.82-1.38 5.11-.35 8 0-1.78 2.75-2.2 5.95-3 9-2.71-.59-5.33-1.4-8-2 .1-2.59 3.11-4.03 2-7-8.56 1.19-6.4-6.66-10-11 10.56-1.19.43-16.1-5-7-2.4-11.11-9.51 1.23-13 4m51 12c7.06-7.43 8.11 4.52 0 0z"/><path id="c" d="M297 55c-2.33-3.19-6.08-5.17-9-8-3.03 3.21 1.9 5.03 2 8 2.59-.86 4.86 2.02 7 0z"/><path id="d" d="M144 62c.92-1.56 3.19-2.14 5-2-.84-2.39-1.03-4.11 1-6-3.53-1-2.37-6.71-7-5 .54 2.37 4.16 8.61-3 9 .75 1.68 2.43 3.04 4 4z"/><path id="e" d="M229 57c.08.49-.08 1.51 0 2 .03 1.14 1.53 1.72 1 3 1.14-.03 1.72-1.53 3-1 .45 2.14-3.99 3.12-1 5h3c-1.31 5.31-3.49 10.25-7 14 .28 1.25-.6 3.47 1 4 6.1 1.44 6.71-4.43 6-9 8.94 4.76-2.86 18.56-2 26-.41 2.89 2.89 3.3 5 3-1.51 5.7 8.59 7.88 3 14 4.75-.94 1.17 3.25 0 5 .84 1.72 3.3 1.99 4 4v3c1.83-.23 3.47.07 5 1-2.47 4.79.23 11.07 5 13-5.57 6.2 8.03 7.78 7 14 2.39-4.09 7-23.32 11-8-4.96.1-1.8 4.65-1 7-3.36-.82-4.11 2.69-3 5 2.01.98 2.64 3.36 4 5 2.86-2.24 6.62-.79 8 2 .91-3.56 5.03-3.46 5-8 5.29.31 2.53 6.79-1 7-1.28 4.37 3.97 3.56 4 6 2.12-.37 5.39.12 5 3 1 .11 2.73-.47 3 1 4.82-2.1 9.47-4.25 15-1 .08-3.07 3.39-6.09 1-9 4.06-3.48 9.51.24 14-2-.73-2.61-1.35-5.14-1-8-3.88-.95-4.52 3.17-4 6-4.99-.31-7.6-1.22-8-7 2.42-.87 3.53-3.54 3-6-4.15-.03-6.38 2.98-10 0-9.69 7.22 6.96 9.34 4 15-1.77-1.23-3.93-3.09-6-1 10.19 13.9-24.84 8.93-9 0 2.85 2.72 6.13 1.2 5-3-9.5 5.55-9.15-11.79-17-5-.38-3.12 4.34-3.89 4-7-2.61-1.71-6.81-.12-8-4 4.99.81 9.07-6.09 5-10 1.99-.51 2.65-2.96 4-4-.02-3.91-2.46-5.71-4-8-3.19.19-7.53 2.5-8 6-2.92.92-4.87-2.93-3-5-2.21-1.28 1.18-3.86 0-6-4.95-.21-3.23-4.76-3-8-6.25-.6-4.83 4.39-2 7-3.05 2.66-2.72-3.99-6-3-.41-6.06 2.1-11.31-2-16-1.75-1.36-4.05-1.78-3-5-.2-1.51 5.16-8.6-2-7 1.47-7.48 5.46-12.39 1-20 2.27-1.94 4.35.78 7 0 2.37-5.85-7.35-6.28-8-11-12.1-1.61-5.64 17-1 19-.75 5.91-7.07 2.39-11 4 1.35-3.76 2.77-7.2 2-12-2.22-1.13-4.09.03-6-1 10.3-8.73 3.03-23.34-4-7-2.26-1.73-4.12-3.82-7-2m15 42c14.9 2.91-5.74 17.35 0 0m9 13c-1.65 4.15-10.93 3.57-7-2 2.09 1.2 5.45.18 7 2m-1 21c1.68-1.77 1.98-3.91 3-6 7.88.64 1.8 11.63-3 6m31 6c-2.24.97-4.98-.63-7 2-3.84-5.49 8.18-10.14 7-2m-10 23c3.43-4.02 4.15-6.52 1-12 10.68-.21 8 12.78-1 12z"/><path id="f" d="M68 130c5.16.83 9.15 8 6 12 2.64-.34 4.32-2.46 7-1-2.15 6.82-.43 1.69 4 3-3.23 3.35-2.12 2.98 3 3-1.1 6.7 3.24 2.99 7 3 4.2 8.48 11.28 15.1 20 21 3.09.68 9.94 3.77 11-1 5.02-.7 5.74 5.71 4 9 2.01.98 2.64 3.36 4 5 2 3.23-3.41 7.13-3 11 4.03-4.52 9.93-4.27 12 1 2.54 3.02 8.74 20.46 17 24-11.52 7.77 12.38 18.28 1 28 5.8 4.07 5.61 15.16 12 19-8.97-.24-7.32 7.35-2 11-.54 1.66-2.56 2.33-3 4 3.86 1.72 6.32-.34 10-1 .98-2.5 3.46-3.45 6-3v-4c-4.39-2.75-7.38-14.76-3-17 1.21-3.29-1.81-3.78-3-6 .55-1.46 2.4-2.18 2-4-1.25 1.43-2.4 3.77-5 3 .28-5.27 3.22-7.55-4-6 5.13-1.1 2.77-7.5-1-9-.57-4.89-5.47-3.15-8-4 2.07-2.9 6.83-2.52 10-2 2.89-1.87 1.08-3.83-2-3 1.27-6.03-2.26-13.28-6-16-1.01-4.08 2.12-5.48 3-9-5.19-2.83-5.87-6.03-4-11-4.27-.09-4.06-5.07-5-8-6.92.18-8.87-7.92-15-8 1.13-.71 3.33-2.95 1-4-1.94.62-3.13-1.2-5-1 .97 5.18-.56 9.59-5 13-1.08-2.86-2.8-5.5-2-9-1.27-.56-1.25-2.85-3-3 1.13-1.53.91-3.45 2-5-3.18-3.85 2.56-6.76 1-11-1.05-5.71-2.7-11.65 1-16-9.33.26-1.63-11.49-11-9 6.43-2.82 1.13-9.2 1-13-3.52.55-.04 3.98-2 5-.48-4.04-2.51-8.13-7-6v7c-5.36.23-6.16-9.83-1-11 .82-3.77.27-8.98-1-13-2.34-.74-1.79 2.73-4 2-.41.83-.97 1.87-2 2-.65-2.34-.52-5.31-4-6 .3-1.25 1.83-1.71 2-3-.43-1.6 1.37-2.46 1-4-2.59-.1-4.03-3.11-7-2-2.71-1.7-3.77-6.96-6-10 14.79 2.1 3.38-13.09-4-7 2.04-7.05-5.67-3.83-9-7 6.44-11.5-6.58-14.48-9-3 4.76 2.02 1.96 9.66 9 9-7.42-1.3-11.14 8.79-1 7-2.03 3.28-3.17 9.88-8 9-3.37 4.97-3.46 17.75 5 12-3.24 3.61-4.9 11.66 2 12-.8 3.14-1.34 7.1-5 8-.35 4.33 4.7 6.85 8 8-.25 6.16-6.3 2.77-10 3 4.67-6.66-7.37-9.62-5-1 1.86-.56 5.03 1.05 3 3m30-30c-1.85-3.59-7.79-6.26-8 0 4.81 1.69 1.86 5.87 1 9 3.22 2.58 4.11 8.93 10 7-3.9 6.24-15.15.61-21.74 1.74 10.01-6.16 11.86-5.56 1.74-13.74 10.96 5.9 3.86-11.18-2 0-1.99-2.55-.93-5.88 1-8 6.49 4.2 6.61-4.74 6-9-5.02-1.57-7.05 2.68-6 7-7.13-5.82 5.34-11.53 2-17 8.7 4.71 11.83 15.28 16 23m6 16c-14.3-10.51 3.18-19.2 0 0m4 12c-3.15 1.34-3.67 4.67-1 7-7.94 1.9-.57-5.13-6-8 2.42-.48 5.4-1.58 7 1m-13 15c-4.7 2.92-7.3 1-5-4 1.97.45 4.94 1.7 5 4m80 129c.62 2.83-2.16 5.62-5 5-.56-3.15 2.99-3.84 5-5z"/><path id="g" d="M179 56c-1.31 3.32 3.16 3.48 3 6 1.41-.51 2.15.81 2 2-3.08-.42-5.99 1.6-5 5 4.2 5.13-6.85 17.36 4 17 2.22-.49 1.74-3.57 4-4 1.39 2.59-.27 5.78-3 7-.16 4.3-3.68 4.81-4 9 5.76 4.89 4.45 19.23-1 25 2.22.05 3.99-2.29 5-4 2.38.39-1.06 2.67 1 3 .87-2.53 2.98-1.01 5-2-.11 1.96-1.79 3.76-3 5 2.77.81 6.04 5.07 4 9 9.83 13.47 17.14 26.39 22 41 2.9.9 4.06-2.92 7-2 3.54-4.94 7.77.87 11 0-.14-2.09-1.96-4.11 0-6-2.59-.1-4.03-3.11-7-2-.96-6.45-8-10.8-6-17-3.61 3.62-9.71-.23-7-5-11.25-1.55.65-19.86-10-19-1.27-3.75-4.1-8.75-1-12-3.63-.76-3.33-5.59-7-5 3.99-7.63-3.66-13.19 0-21-8.16.2 1.5-9.8-5-12 .73-2.03 3.19-2.96 4-5-4.98-2.2-3.09-8.62-2-13-1.74-.02-3.6.21-5-1-2.09-.31-5.06-2.2-6 1z"/><path id="h" d="M229 59c-.08-.49.08-1.51 0-2-.03-1.14-1.53-1.72-1-3-6.75-1.3-4.49 9.27 1 5z"/><path id="i" d="M118 58c-2.47.88-2.45 5.2-6 4-2.51 4.54-2.12 15.41 5 10-3.87-4.19-.07-9.81 5-7 1.28-3.86-2.39-4.65-4-7z"/><path id="j" d="M95 59c-10.84 1.68 4.51 10.62 0 0z"/><path id="k" d="M293 64c.22-11.39-9.77 1.32-1 6 10.69-4.07 7.52 7.79 7 14 4.49-1.54 5.82-.91 10 0 5.36-6-.01-13.09-4-4-4.45-4.19.43-9.93-4-15-3.12-.05-5.44 1.32-8-1z"/><path id="l" d="M179 69c-.99-3.4 1.92-5.42 5-5 .15-1.19-.59-2.51-2-2-2.27.54-3.77-1.52-6-1 1.3 4.03-2.83 6.16-2 10 1.92.01 3.32-1.29 5-2z"/><path id="m" d="M193 69c6 .67 14.49-4.83 5-8-1.97 2.49-3.83 5.02-5 8z"/><path id="n" d="M150 73c3.34-1.05 1.51-4.81 1-7-2.81 2.14-7.36 1.01-7-3l-4 2c.89 4.56 5.36 7.95 10 8z"/><path id="o" d="M262 77c2.28 15.59 16.77-16.02 5-12 1.06 4.7-1.19 9.59-5 12z"/><path id="p" d="M228 80c3.51-3.75 5.69-8.69 7-14h-3c-1.08 4.99-4.48 10.23-4 14z"/><path id="q" d="M48 67c-3.02-.23-3.26 3.34-5 5 3.36.94 6.02-1.6 5-5z"/><path id="r" d="M63 74c13.27 1.37-1.41-13.25 0 0z"/><path id="s" d="M220 70c-6.07-1.52-5.11 5.06-8 8 6.68-1.41 5.29 10.8 13 8 .72-6.22-9.21-9.64-5-16z"/><path id="t" d="M119 72c-1.79 11.85 8.98 1.95 0 0z"/><path id="u" d="M171 79c-.08-4.97-2.54-6.34-7-7-7.04 7.23-1.13 10.15 7 7z"/><path id="v" d="M294 73c-9.22 3.74 7.08 7.06 0 0z"/><path id="w" d="M207 74c-2.39.06-4.86 2.67-5 5 4.3 2.49 4.2-1.88 5-5z"/><path id="x" d="M229 84c-.27 1.47-2 .89-3 1-.8 3.17 2.49 4.78 5 5-.27 4.25-3.02 7.42 1 11 .23.25 1 0 1 0-.86-7.44 10.94-21.24 2-26 .71 4.57.1 10.44-6 9z"/><path id="y" d="M201 76c-3.31 1.65-8.72 1.67-7 7 3.59-.27 5.98-3.9 7-7z"/><path id="z" d="M98 100c-4.17-7.72-7.3-18.29-16-23 3.34 5.47-9.13 11.18-2 17-1.05-4.32.98-8.57 6-7 .61 4.26.49 13.2-6 9-1.93 2.12-2.99 5.45-1 8 5.86-11.18 12.96 5.9 2 0 10.12 8.18 8.27 7.58-1.74 13.74 6.59-1.13 17.84 4.5 21.74-1.74-5.89 1.93-6.78-4.42-10-7 .86-3.13 3.81-7.31-1-9 .21-6.26 6.15-3.59 8 0z"/><path id="AA" d="M144 78c-6.34 11.36 5.55 10.55 0 0z"/><path id="AB" d="M114 80c-2.03 1.95-6.44 2.66-7 6 3.14-1.74 10.39-.32 7-6z"/><path id="AC" d="M183 86c.22.95-.39 2.74 1 3 2.73-1.22 4.39-4.41 3-7-2.26.43-1.78 3.51-4 4z"/><path id="AD" d="M124 83c-11.3.83 4.78 10.98 0 0z"/><path id="AE" d="M133 84v4c1.6.53.72 2.75 1 4 2.52-2.32 1.36-5.98 4-9-1.93-.53-3.24 1.05-5 1z"/><path id="AF" d="M157 93c.56-3.23-.79-5.99-1-9h-3c.64 2.61-1.29 4.51-1 7 1.55 1.09 3.47.87 5 2z"/><path id="AG" d="M64 85c-12.23.09 3.87 11.34 0 0z"/><path id="AH" d="M208 93c-1.31-3.86-.58-9.98-7-8 .79 2.86 3.64 5.93 1 9 2.39.84 4.11 1.03 6-1z"/><path id="AI" d="M322 86c-10.54 6.01 6.04 9.53 0 0z"/><path id="AJ" d="M173 87c-3.27-.89-2.82 2.15-4 4 3.44 1.47 2.53 5.49 5 8-2.64 3.81-7.46.23-11 3 .92 7.31 9.07.36 12 6 2.18-4.26-.87-8.44 3-12-4.93-.44-5.73-4.62-5-9z"/><path id="AK" d="M45 88c-10.57 4.1 7.09 9.35 0 0z"/><path id="AL" d="M134 101c.61-2.96-2.39-8.44 0-9-.28-1.25.6-3.47-1-4-1.08 4.46-1.86 9.35 1 13z"/><path id="AM" d="M226 95c-.89-9.23-8.48 1.84-13 0 4.06.25 6.67 3.76 9 6-.61-2.7.96-6.07 4-6z"/><path id="AN" d="M104 93c-.17 1.29-1.7 1.75-2 3 3.48.69 3.35 3.66 4 6 1.03-.13 1.59-1.17 2-2 2.1-2.31-1.61-8.6-4-7z"/><path id="AO" d="M50 97c3.79 22.16 10.97-11.26 0 0z"/><path id="AP" d="M57 95c-4.77 27.15 15.8 4.12 0 0z"/><path id="AQ" d="M41 95c-13.14 11.19 5.92 22.69 0 0z"/><path id="AR" d="M120 101c-.76-2.6-2.5-6.7-6-6 .27 3.07 3.88 5.03 6 6z"/><path id="AS" d="M244 99c-5.74 17.35 14.9 2.91 0 0z"/><path id="AT" d="M274 119c.47-6.3 5.85-1.5 9-3-1.21-3.89-7.13-7.01-11-5-.1-5.13-6.53-6.24-5-12h-6c4.1 4.69 1.59 9.94 2 16 3.28-.99 2.95 5.66 6 3-2.83-2.61-4.25-7.6 2-7-.23 3.24-1.95 7.79 3 8z"/><path id="AU" d="M233 115c8.66-1.31 5.05 6.74-1 2-.75 3.88.36 7.46 5 6-.98 3.29-4.51 4.61-3 9-7.65-2.55-7.31 8.2 0 6 .96 4.27-2.3 7.48-5 10 .25 1.53 2.55 2.18 2 4 2.83-.52 6.95.12 6 4-1.76.05-3.07-1.53-5-1-3.37 2.63-4.56 11.05 0 11-.92 2.59-1.34 4.95 1 7 2.7-.76 1.96 2.9 0 3-.78 5.37 3.63-1.6 6-1 7.53 5.15 27.85 4.62 34-1-7.69-1.72 2.91-8.74 1 0 2.2 2.04 5.87 2.15 9 2 .54-2.68-.92-4.78-2-7-1.38-2.79-5.14-4.24-8-2-1.36-1.64-1.99-4.02-4-5-1.97 1.59-4.66.8-7 1v-5c1.03-6.22-12.57-7.8-7-14-4.77-1.93-7.47-8.21-5-13-1.53-.93-3.17-1.23-5-1-1.24 1.87-5.12-1.13-5-3 1.51-1.59 3.08.63 5 0-.7-2.01-3.16-2.28-4-4 1.17-1.75 4.75-5.94 0-5 5.59-6.12-4.51-8.3-3-14-2.11.3-5.41-.11-5-3 0 0-.77.25-1 0-3.05 4.81-.29 9.47 1 14z"/><path id="AV" d="M132 154c1.56 4.24-4.18 7.15-1 11h3c-.94 3.29 2.52 7.23-2 8-.8 3.5.92 6.14 2 9 4.44-3.41 5.97-7.82 5-13 1.87-.2 3.06 1.62 5 1 .9-2.37 4.33-2.34 5-5 11.37 3.24 25.89-3.75 34 5 3.89-3.07 8 .56 9 4 .65-2.94 3.38-3.51 6-4-.67 4.47 9.16 7.07 7 0 5.68 1.71 8.58 9.44 15 4 .22-.13 0-1 0-1-2.94-.92-4.1 2.9-7 2-4.86-14.61-12.17-27.53-22-41 2.04-3.93-1.23-8.19-4-9-1.29-.44-2.21-1.58-2-3-2.06-.33 1.38-2.61-1-3-1.01 1.71-2.78 4.05-5 4 2.54 2.63-1.97 4.11-1 7 3.46.39 1.39 3.83 5 3-.25 3.5 1.26 8.43-3 10-.73 4.7 6.16 7.8 4 12-.54 2.26-3.17 2.12-5 2 10.94 9.09-7.23 6.7-12 9-5.87-2.97-3.76-10.76-6-16-2.25-.39-4.04 2.92-6 1 1.61-2.37-.53-4.51 1-7-5.77-2.19-9.23-16.77-5-21-3.27 1.62-6.82.85-9-2-.2-.4.25-1.74 0-2-2.81-5.38-4.73-12.32-8-17 .25 1.93-1.53 3.17-3 4-.25 2.46 1.67 5.74 4 6-.23 2.47-1.69 4.86-4 6 8.06 11.31.53 23.51 1 36z"/><path id="AW" d="M104 116c3.18-19.2-14.3-10.51 0 0z"/><path id="AX" d="M309 106c8.11 4.52 7.06-7.43 0 0z"/><path id="AY" d="M334 109c-2.82-11.69-10.49 4.52 0 0z"/><path id="AZ" d="M53 107c-12.65.53 4.08 11.71 0 0z"/><path id="Aa" d="M24 108c-10.51 2.06 4.62 10.67 0 0z"/><path id="Ab" d="M113 111c-5.16 1.17-4.36 11.23 1 11v-7c.67-2.66 4.1-2.63 5-5-1.92-1.27-4.04.19-6 1z"/><path id="Ac" d="M253 112c-1.55-1.82-4.91-.8-7-2-3.93 5.57 5.35 6.15 7 2z"/><path id="Ad" d="M325 111c-9.28 2.05 4.08 8.64 0 0z"/><path id="Ae" d="M55 119c20.45-8.39-29.55 2.27-6 0-.87 8.9 12.15 10.04 6 0z"/><path id="Af" d="M232 117c6.05 4.74 9.66-3.31 1-2 .09.89-.87 1.2-1 2z"/><path id="Ag" d="M33 123c-7.66 10.07 15.44 12.48 5.26.75 4.7-14.68-21.98-2.64-5.26-.75z"/><path id="Ah" d="M142 119c.25.26-.2 1.6 0 2 3.41.88 3.36-2.84 4-5-1.93-.41-4.39.71-4 3z"/><path id="Ai" d="M326 124c-.43 10.21 17.61-4.54 6-5-.65 3.31-2.7 4.76-6 5z"/><path id="Aj" d="M185 122c-.21 1.42.71 2.56 2 3 1.21-1.24 2.89-3.04 3-5-2.02.99-4.13-.53-5 2z"/><path id="Ak" d="M274 125c-1.87 2.07.08 5.92 3 5 .47-3.5 4.81-5.81 8-6v-3c-2.95 2.82-4.92-1.69-8-1-1.64 1.42.01 5.44-3 5z"/><path id="Al" d="M314 125c-10.19-.25 3.01 8.43 0 0z"/><path id="Am" d="M108 128c-1.6-2.58-4.58-1.48-7-1 5.43 2.87-1.94 9.9 6 8-2.67-2.33-2.15-5.66 1-7z"/><path id="An" d="M245 130v-3c-1.92.63-3.49-1.59-5 0-.12 1.87 3.76 4.87 5 3z"/><path id="Ao" d="M252 133c4.8 5.63 10.88-5.36 3-6-1.02 2.09-1.32 4.23-3 6z"/><path id="Ap" d="M32 173c2.65-.78 4.73 1.94 7 0 2.69-4.79 8.55-3.54 13-5-.83 1.47-2.07 3.25-4 3 1.66 1.37 4.65-.62 7 1-.13-2.51-2.99-3.39 0-5-.29 4.86 6.79 2.77 6 8 .04.14 1.67.24 2 0-.27-1.28.77-2.72 2-3-4.44-5.16-7.56-12.29-14-15 9.58-20.12 2.45 10.32 14 3-1.44 4.87 5.42 9.41 7 11 4.9 3.03 16.23-4.91 22 2 4.44-4.92 13.24 4.9 15-4 2.47-.68 4.18.78 6 2-8.72-5.9-15.8-12.52-20-21-3.76-.01-8.1 3.7-7-3-5.12-.02-6.23.35-3-3-4.43-1.31-6.15 3.82-4-3-2.68-1.46-4.36.66-7 1 3.15-4-.84-11.17-6-12-10.72 6.84-3.98 16.73-19 17 .59-3.76 3.4-7.07 1-11 5.93-11.46-13.12 1.03-7 11-3.44 1.89-7.54 2.97-11 0 5.97-11.83-7.09-3.87-3 5 1.91 3.45 6.79 14.95 8 4 2.24-2 6.94-.37 6 3-4.84 4.27-7.61 8.78-11 14m49-13c-3.85 3.22-4.38 3.76-10 2-.2-5.02 8-6.43 10-2z"/><path id="Aq" d="M30 131c-17.51 5.09 4.28 14.07 0 0z"/><path id="Ar" d="M315 141c13.89-.92 3.43-9.61-5-10-.74 3.36-3.66 4.76-7 4-.98 7.49 5.28 3.96 7 1-2.36 7.97 5.36 17.07 5 5z"/><path id="As" d="M331 132c-11.31 1.87 6.6 8.99 0 0z"/><path id="At" d="M283 139c1.18-8.14-10.84-3.49-7 2 2.02-2.63 4.76-1.03 7-2z"/><path id="Au" d="M95 143c-.06-2.3-3.03-3.55-5-4-2.3 5 .3 6.92 5 4z"/><path id="Av" d="M326 155c2.3-6.69 15.89-20.09-1-13 2.76 3.97-7.91 12.63 1 13z"/><path id="Aw" d="M295 150c6.15 19.17 11.63-19.19 2-1-6.02-5.88-10.96 4.18-2 1z"/><path id="Ax" d="M262 158v5c2.34-.2 5.03.59 7-1-1.11-2.31-.36-5.82 3-5-.8-2.35-3.96-6.9 1-7-4-15.32-8.61 3.91-11 8z"/><path id="Ay" d="M341 146c-8.84 3.8 6.45 7.32 0 0z"/><path id="Az" d="M20 160c10.95-3.88 3.37-21.65 0-6-6.24 2-4.47-8.19-11-6-1.3 4.03 2.83 6.16 2 10 2.88 1.13 5.83 2.03 9 2z"/><path id="BA" d="M65 172c2.61.67 4.45-1.34 7-1-1.58-1.59-8.44-6.13-7-11-11.55 7.32-4.42-23.12-14-3 6.44 2.71 9.56 9.84 14 15z"/><path id="BB" d="M273 162c9 .78 11.68-12.21 1-12 3.15 5.48 2.43 7.98-1 12z"/><path id="BC" d="M232 155c1.93-.53 3.24 1.05 5 1 .95-3.88-3.17-4.52-6-4 .22.95-.39 2.74 1 3z"/><path id="BD" d="M346 156c-10.75 1.27 4.62 9.88 0 0z"/><path id="BE" d="M81 160c-2-4.43-10.2-3.02-10 2 5.62 1.76 6.15 1.22 10-2z"/><path id="BF" d="M331 158c-.85 10.56 10.31-.66 0 0z"/><path id="BG" d="M281 169c1.08 2.22 2.54 4.32 2 7 2.23-.52 3.73 1.54 6 1v-3c-.03-2.44-5.28-1.63-4-6 3.53-.21 6.29-6.69 1-7 .03 4.54-4.09 4.44-5 8z"/><path id="BH" d="M132 173c4.52-.77 1.06-4.71 2-8h-3c-1.09 1.55-.87 3.47-2 5 1.75.15 1.73 2.44 3 3z"/><path id="BI" d="M144 170c2.33 1.05.13 3.29-1 4 6.13.08 8.08 8.18 15 8 .94 2.93.73 7.91 5 8-1.87 4.97-1.19 8.17 4 11-.88 3.52-4.01 4.92-3 9 3.74 2.72 7.27 9.97 6 16 3.08-.83 4.89 1.13 2 3 1.45 1.89-1.22 4.37-2 6 3.77 1.5 6.13 7.9 1 9 7.22-1.55 4.28.73 4 6 2.6.77 3.75-1.57 5-3 3.87-2 3.4-7.09 4-11-7.8-4.41 1.52-21.24 1-31-8.99-7.04-7.67-34.21 4-35-.59 5.29 7.96 5.54 5 11 1.91 1.9 4.33 2.31 7 2-1.95 3.12 4.65 8.64-1 8-1.32 5.49 3.02 4.05 6 5 .97 9.87 5.04 19.96 12 28-11.07 5.37 9.9 5.93 4 16-4.58-3.68 3.73 6.5 6 6h3c-1.08-3.75-1.01-7.06 2-10-4.85-1.91-4.72-7.15-1-10-2.56.98-6.88-3.12-4-5 1.98-7.78-1.26-13.32 3-21 1.58-4.82-7.74-7.96-2-12-.53-1.28.97-1.86 1-3-1.46-.55-2.18-2.4-4-2-5.18-1.55 1.09-9.94-6-9-6.42 5.44-9.32-2.29-15-4 2.16 7.07-7.67 4.47-7 0-2.62.49-5.35 1.06-6 4-1-3.44-5.11-7.07-9-4-8.11-8.75-22.63-1.76-34-5-.67 2.66-4.1 2.63-5 5z"/><path id="BJ" d="M11 174c.93-1.14 1.08-2.55 1-4-2.43-.5-1.98-4.61-5-4 .22 3.25-1.5 9.63 4 8z"/><path id="BK" d="M27 172c.4-.2 1.65-.23 2 0 6.76-7.24-9.82-6.53-2 0z"/><path id="BL" d="M48 171c-3.83.45-5.19 1.32-9 2-2.27 1.94-4.35-.78-7 0-.56 1.97-2.76.28-3-1-.35-.23-1.6-.2-2 0-7.8 6.36 9.16 11.97 9 4 3.08-.79 4.21 2.58 4 5-6.41-.18-2.38 6.08-1 9 7.04 1.09 7.12-5.48 7-10 4.4 2.39 1.49 7.51 3 11 4.47-1.23 5.1 1.66 6 5 6.21-4.28 9.7-4.88 17 0-.8 7.51-13.05 5.2-12 11 .13-4.69 6.24-2.21 9-4 1.7 1.29-.01 4.17 2 5-.42-3.98 4.41-2.98 5 0 5.97-.82 3.26 6.03 2 9 4.31-3.35 2.79-8.67 0-12 3.14-2.06 6.64 1.25 10-1 3.27 4.73-4.67 4.06-6 8 .72 3.37 2.08 6.72 1 10-11.04-2.96-6.18 16.45 0 5 1.84 3.53 5.37 4.25 9 3l3 9c-3.27-.87-2.86 5.56-6 3 .44 1.29 1.58 2.21 3 2-.17 2.72.61 5.67-1 8 2.45-3.27 3.05-5.72 8-6-5.1 13.08 6.51 14.04 8 3-3.71 16.05 11.19-2.78 19 5 .3 2.56 2.02 5.95 5 6 4.95-2.4 1.68-7.24-1-10-2.75-1.19-7.17-1.81-6-6 3.04 1.72 5.69-.19 9 0 2.46-1.52-1.93-2.95-3-4 2.02-2.93 3.64-5.69 0-8 1.65-6.65.1-15.58-2-22-2.12-.06-4.23-.23-6 1 5.03-11.17-7.22-17.28-14-24 4.64-3.94-1.31-6.09-2-10-4.7 4.12-7.69-2.78-12-4-5.77-6.91-17.1 1.03-22-2-2.55-.34-4.39 1.67-7 1-1.23.28-2.27 1.72-2 3 2.27 2.28-2.95 6.18 0 9-7.09.45-.66-5.3-2-9 .79-5.23-6.29-3.14-6-8-2.99 1.61-.13 2.49 0 5-2.35-1.62-5.34.37-7-1m32 9c1.22 4.64 9.56 6.25 14 4-3.49 5.63 2.23 10.39 2 16-2.93.89-6.04 1.11-9 2 3.07-7.23 3.92-20.12-7-12 .46-4.69-2.64-7.37-7-8 2.97 1.11 4.41-1.9 7-2m29 35c.68 2.42 2.81 3.92 4 6-3.74-2.73-7.12-1.77-10 1 .68-3.45 2.94-5.45 6-7m-11 10c-4.89 1.17-7.72-2.42-10-6 4.02-2 9.26 1.81 10 6m4 6c.18 3.93 2.06 9.29 2 13-2.83-.48-2.22-5.29-5-7 2.48-1.09-.89-6.4 3-6z"/><path id="BM" d="M39 173c3.81-.68 5.17-1.55 9-2 1.93.25 3.17-1.53 4-3-4.45 1.46-10.31.21-13 5z"/><path id="BN" d="M94 173c4.31 1.22 7.3 8.12 12 4 .69 3.91 6.64 6.06 2 10 6.78 6.72 19.03 12.83 14 24 1.77-1.23 3.88-1.06 6-1 7.11-.15.32-8 5-10 .53-2.16-1.11-4.24-3-5 .46-3.96 2.92-7.22 4-11-1.36-1.64-1.99-4.02-4-5 1.74-3.29 1.02-9.7-4-9-1.06 4.77-7.91 1.68-11 1-1.82-1.22-3.53-2.68-6-2-1.76 8.9-10.56-.92-15 4z"/><path id="BO" d="M273 174c.5.04 1 0 1 0 1.91-8.74-8.69-1.72-1 0z"/><path id="BP" d="M11 174c3.34 7.5 9.86-6.15 1-4 .08 1.45-.07 2.86-1 4z"/><path id="BQ" d="M185 205c-7.78-3.63-5.6-11.3-2-17 .7 3.16 3.95 7.57 7 4-1.85 5.47-2.22 10.44 4 13-3.85 6.37 5.43 11.41 1 17 11.66 4.11 5.21 18.58 10 26 2.25 1.1 5.96 1.31 5 5-6.16 1.74-.13 6.6 0 10 4.76 1.19-2.99 4.39-5 5 .97 5.8 6.14 5.07 10 8 .73 2.87-2.6 7.16-5 6 2.05 1.82-.19 3.37-1 5 .94-.57 1.82-1.15 3-1-1.13 1.53-.91 3.45-2 5-.53 2.53 2.75 1.75 4 3-3.45 1.26-6.94 4.31-3 9-.87.95-2.68.54-3 2 2.72-.22 2.61 4.34 6 3 .82-2.73 3.07-4.89 6-5 .72 2.21.72 6.23 4 6 .54 2.56-1.7 4.37-3 6 2.54 2.91 1.09 5.6 1 9 2.72.93 5.22 2.39 8 3 .78-1.41 1.99-2.91 3-4 1.21-1.4.98-3.26 1-5-2.99-.29-5.83-.11-8 2 .36-3.76 4.21-7.13 7-9 .87-3.7-3.25-5.52-1-9-1.14-3.41-3.53-3.4-1-7-4.15-4.98-9.69 1.78-4 5-5.42 2.5-7.53-3.75-8-8 6.74-2.26.75-7.94 3-13 4.3-1.26 3.75 2.41 5 5 5.09 1.35 5.4-4.42 5-8-3.16-3.44 1.22-5.46 2-8-1.71-1.19-4.12-2.65-4-5 6.69-4.08-1.43-11.68-2-17-2.27.5-10.58-9.68-6-6 5.9-10.07-15.07-10.63-4-16-6.96-8.04-11.03-18.13-12-28-2.98-.95-7.32.49-6-5 5.65.64-.95-4.88 1-8-2.67.31-5.09-.1-7-2 2.96-5.46-5.59-5.71-5-11-11.67.79-12.99 27.96-4 35m42 63c-8.39 3.21-1.62-6.24-2-9 3.68 1.87.23 5.85 2 9z"/><path id="BR" d="M220 173s.22.87 0 1c7.09-.94.82 7.45 6 9-2.21-2.36 2.51-2.41 4-3-.49-1.93.74-4.37 3-4 1.96-.1 2.7-3.76 0-3-.49-.08-1.55-.15-2 0-3.23.87-7.46-4.94-11 0z"/><path id="BS" d="M318 177c.25.09 1 1 1 1 8.21.68-.46-9.15-1-1z"/><path id="BT" d="M233 176c-2.26-.37-3.49 2.07-3 4 .13.8 1.09 1.11 1 2 1.19-2.76 3.68-1.59 6-1-1.51 3.48.47 13.8 5 9 2.08-1.93 5.32.99 8-1 .37 2.12-.12 5.39-3 5-.67 2.94 1.09 5.18 1 8 4.46-.13 3.35 5.8 8 5 .98-1.77 2.8-2.35 5-2-1.29 7.6 9.46 6.14 8 14 3.32.86 4.97 5.24 8 4 6.44.88 10.76-2.53 16-5-2.73 4.78 5.52 6.15 2 11-2.5-.39-3.38-4.44-7-3-.64 3.54-4.27 3.07-7 4 1.82 2.14 4.08 3.89 7 5-1.18 2.59.47 5 0 8 4.01-.69 11.52.04 11-6 5.09.98 7.72-1.77 12-3-1.78-4.99 7.31-4.9 3-10 7.59 6.47 5.24-6.64 12-3 1.81-2.19.55-4.72 0-7 12.08 6.95 12.6-10.68 1-1 1.85-8.01 9.57-9.9 13-15-1.09-3.49-.68-5.97 1-9-3.72-2.13-4.01-4.85-3-9-5.99 3.06-9.97 10.87-17 13-15.41-1.4 3.03 6.09 3 12-7.21-.5-8.56 6.07-15 7 5.25-6.79 2.24-12.96-6-7 .67 4.95 1.33 14.14-5 15-1.11-3.21 3.23-4.12 3-7-4.18-1.32-1.94-5.28-3-8-2.79.46-7.01-.12-6-4 4.38 1.4 18.27 1.32 12-6 5.3-1.28 5.19-8.76 0-10 2.21-15.05 15.75 14.22 17-1-3.78-.53-5.13-3.27-2-6 0 0-.75-.91-1-1h-6c-5.53-3.25-10.18-1.1-15 1-3.28 5.04-3.52 14.81 5 11 .45 7.49-8.35.61-13 2-.31 4.61-5.42 2.87-7 6-3.54-2.77-8.89-3.04-12-6 7.79 3.69 28.81-1.38 17-10 1.94-3.22 6.64.39 7-4 .39-2.88-2.88-3.37-5-3v3c-2.27.54-3.77-1.52-6-1-3.13.15-6.8.04-9-2 0 0-.5.04-1 0-6.15 5.62-26.47 6.15-34 1-2.37-.6-6.78 6.37-6 1m40 33c-10.26 1.63-1.92-9.73 0 0m50 7c-3.05-2.06-8.28-.06-6 4-10.19-1.96 6.37-16.06 6-4m-25 16c2.04-2.32 3.79-4.63 3-8 7.24-.04 1.61 11.88-3 8z"/><path id="BU" d="M63 175c-.33.24-1.96.14-2 0 1.34 3.7-5.09 9.45 2 9-2.95-2.82 2.27-6.72 0-9z"/><path id="BV" d="M344 175c-9.74-1.32 0 8.9 0 0z"/><path id="BW" d="M297 178c-.27-1.47-2-.89-3-1-.36 4.39-5.06.78-7 4 11.81 8.62-9.21 13.69-17 10 3.11 2.96 8.46 3.23 12 6 1.58-3.13 6.69-1.39 7-6 4.65-1.39 13.45 5.49 13-2-8.52 3.81-8.28-5.96-5-11z"/><path id="BX" d="M329 177c-10.09.62 3.91 8.32 0 0z"/><path id="BY" d="M80 180c-2.59.1-4.03 3.11-7 2 4.36.63 7.46 3.31 7 8 10.92-8.12 10.07 4.77 7 12 2.96-.89 6.07-1.11 9-2 .23-5.61-5.49-10.37-2-16-4.44 2.25-12.78.64-14-4z"/><path id="BZ" d="M226 183c1.82-.4 2.54 1.45 4 2 2.78.53.76-1.61 1-3 .09-.89-.87-1.2-1-2-1.49.59-6.21.64-4 3z"/><path id="Ba" d="M231 182c-.24 1.39 1.78 3.53-1 3-.03 1.14-1.53 1.72-1 3 6.56-.28 3.54 9.05 2 12-4.26 7.68-1.02 13.22-3 21-.98 5.16 5.13 4.21 8 3 3.18 2.8 1.94 10.28 8 10v7c10.52 6.78 8.83-5.27 17-7-3.29 4.18-3.75 10.11 1 13-3.19 2.97-5.44-2.38-9-1-1.4 2.56-1.25 6.95 3 6 1.81 3.16-3.09 6.01-1 8 15.19-7.12-2.11 22.42 13 11 3.72 2.99 1.01 6.97 5 10-6.22-1.78-13.38 4.76-3 5-3.57 6.96 3.31 8.33 7 4 7.7 9.91 3.63-10.08 11-10-.21-7.79-9.95-2.7-13-1 .92-5.24-.02-14.14-7-11-1.14-2.37-.22-6.05 3-6 2.27 9.82 11.74 3.83 15 10 10.54-1.6-2.7-19.06 12-18 2.14-7.59-7.26-8.8-11-4 .81 4.95-1.93 11.9-8 9 1.55-5.01 1.24-10.51-2-14 4.43-.09 5.16 5.77 10 4 .11-2.04-.42-4.33 1-6 .47-3-1.18-5.41 0-8-2.92-1.11-5.18-2.86-7-5-1.63-.01-2.51 1.28-4 0 1.28-2.47.13-4.32 0-7-3.03 1.24-4.68-3.14-8-4-1.69-.32-3.29 1.32-3 3-2.09-1.04-3.23-3.78-6-3 1.79-4.69-4.43-6.73-4-12-4.65.8-3.54-5.13-8-5 .09-2.82-1.67-5.06-1-8-1.82-.55-2.47 1.75-4 2 .59-2.27-.85-3.9-1-6-4.53 4.8-6.51-5.52-5-9-2.32-.59-4.81-1.76-6 1m41 51c-1.66 4.22-3.59 8.32-7 11 .21-2.66 1.2-4.43 0-7 4 1.44 3.48-4.45 7-4m2 16c-3.23.9-4.62-2.34-4-5 2.47-.09 4.54 2.58 4 5z"/><path id="Bb" d="M8 181c-1.72 1.57-1.5 6.36 0 8 3.6-1.98 1.42-5.74 0-8z"/><path id="Bc" d="M133 200c-1.37 7.5-1.94 13.73-3 22 15.45-5.05.76 18.63 11 18-3.94 3.16-1.76 11 4 9 2.67 3.01-.7 5.98-1 9 3.7-3.07 4.37 2.7 7 3-3.41 1.83-2.2 4.42-4 7 6.39-1.32 6.72 5.98 8 10 2.31-1.27 5.07-.93 7-3 3.13 2.78-1.07 8.22 4 10-3.86 1.64-4.76 5.56-3 9-3.48-.07-3.64 4.45-4 7 1.85.5 4.66 4.19 1 4 .91 3.07-.76 7.8-3 10 2.23-.52 3.73 1.54 6 1 .9-3.26 3.75-.11 6-1 4.32-3.83 4.73-8.19 0-11 17.99-9.65 11.69-6.75-1-14 2.75-1.22 5.42 2.44 9 1 3.81-2.88 11.62-4.38 7-13-2.54-.45-5.02.5-6 3 1.08 5.66-8.71 5.37-10 1 .44-1.67 2.46-2.34 3-4-5.32-3.65-6.97-11.24 2-11-6.39-3.84-6.2-14.93-12-19 11.38-9.72-12.52-20.23-1-28-8.26-3.54-14.46-20.98-17-24-2.07-5.27-7.97-5.52-12-1-.41-3.87 5-7.77 3-11-1.08 3.78-3.54 7.04-4 11 1.89.76 3.53 2.84 3 5m15 24c1.3 3.22-.14 8.21-2 11 1.11-2.97-1.9-4.41-2-7 3.08.69 2.31-3.09 4-4m9 47c-.09-3.08 2.42-5.77 4-8 2.47 2.71 1.19 9.83-4 8z"/><path id="Bd" d="M348 184c-3.29 1.57-5.12 6.48-2 9 1.68-2.27 2.05-5.91 2-9z"/><path id="Be" d="M185 205c.52 9.76-8.8 26.59-1 31-.6 3.91-.13 9-4 11 .4 1.82-1.45 2.54-2 4 1.19 2.22 4.21 2.71 3 6-4.38 2.24-1.39 14.25 3 17h3c-4.19 6.66 6.93 8.01 7 14-2.43 1.97-6.41 4.37-6 8 5.13 2.39 1.83 9.15 4 14-10.3 4.88 8 11.22 2 0 1.57-1.4 3.38-2.63 4-5 6.44-.04 4.79 6.61 0 8 .29 2.89 2.53 6.65 6 6 .31-4.46 4.79-6.82 8-3-1.64 12.56 7.54 2.44 4-5-2.58-1.4-11.04-1.83-8-6 .32-1.46 2.13-1.05 3-2-3.94-4.69-.45-7.74 3-9-1.25-1.25-4.53-.47-4-3-3.1-2.15-4.79 1.32-8 1 .54-2.12 1.86-4.36 3-6 1.14.93 2.55 1.08 4 1 .81-1.63 3.05-3.18 1-5-3.6-3.34-9.06-7.94-14-3-.66-4.02-6.48-4.19-5-9 5.63 10.08 13.19-.14 12-9 2.97-1.11 4.41 1.9 7 2-.13-3.4-6.16-8.26 0-10 .96-3.69-2.75-3.9-5-5-4.79-7.42 1.66-21.89-10-26 4.43-5.59-4.85-10.63-1-17-6.22-2.56-5.85-7.53-4-13-3.05 3.57-6.3-.84-7-4-3.6 5.7-5.78 13.37 2 17z"/><path id="Bf" d="M231 200c1.54-2.95 4.56-12.28-2-12-5.74 4.04 3.58 7.18 2 12z"/><path id="Bg" d="M242 190c.15 2.1 1.59 3.73 1 6 1.53-.25 2.18-2.55 4-2 2.88.39 3.37-2.88 3-5-2.68 1.99-5.92-.93-8 1z"/><path id="Bh" d="M44 199c20.9 5.9-10.92-16.25-11 0 6.8-1.27 2.34 8.68 2 12-1.24-3.99-5.52-6.51-10-6-3.95 3.79-17.2 5.24-13 15 7.42 1.41 8.34-12.32 16-9-4.77 13.6 12.1 2.78 14-1-.69-4.04.77-7.51 2-11z"/><path id="Bi" d="M31 197c-11.06 4.17 6.82 10.5 0 0z"/><path id="Bj" d="M128 210c2.1 6.42 3.65 15.35 2 22 3.64 2.31 2.02 5.07 0 8 1.07 1.05 5.46 2.48 3 4 2.89 2.96-2.51 3.34-3 6 2.68 2.76 5.95 7.6 1 10-.24.3-.08 1.51 0 2-.34 3.11 4.38 3.88 4 7 2.45-3.43 4.94.47 7 2-1.91 1.9-4.33 2.31-7 2 2.5 2.47-1.35 3.72-3 5-.18 1.68 3.96 5.8 0 4-.35 4.13 3.29 7.22-2 8 3.38-1.19 6.58 2.09 4 5 3.55-2.59 5.78 3.66 9 4-4.7.56-7.41 11.63 0 10 1.21-3.37 2.15-8.61 5-10 1.09 7.06-6.15 16.56 4 18-11.38 8.67 16.97 15.59 7 3 2.05.17 4.11-2 4-4-2.27.54-3.77-1.52-6-1 2.24-2.2 3.91-6.93 3-10-8.3-4.03-3.3-20.66-10-6-3.85-4.81 4.95-8.81 0-14 3.14-1.27 7.04-3.11 5-7-1.28-4.02-1.61-11.32-8-10 1.8-2.58.59-5.17 4-7-2.63-.3-3.3-6.07-7-3 .3-3.02 3.67-5.99 1-9-5.76 2-7.94-5.84-4-9-10.24.63 4.45-23.05-11-18 1.06-8.27 1.63-14.5 3-22-4.68 2 2.11 9.85-5 10z"/><path id="Bk" d="M16 201c-12.33 3.82 7.56 10.35 0 0z"/><path id="Bl" d="M56 201c-11.32 2.28 5.4 12.21 0 0z"/><path id="Bm" d="M60 207c-.44 3.26 3.25 2.7 5 4-6.6 7.42-6.46 7.93-1 17-12.31-6.12-4.71 4.9 2 8-4.58 1-4.18 5.18-3 9-2.52-6.3-8.04-5.57-14-5 .21-14.63-15.34-3.96-4 5 3.66-1.22 6.99 2.67 11 0 1.45 3.48-.62 5.38-4 6-9.49-10.71-23 2.85-4 4 1.22 8.53 13.47 13.21 7 2 3.35-1.27 5.55-4.7 3-8 4.38-.32 7.57 6.23 12 1 2.83 4.54-2.11 8.8-3 13-10.66-1.09-.38 12.23 2 2 3.41-.88 3.36 2.84 4 5-10.69 5.36 10.8 10.16 8 0-6.27-1.29-.02-7.58-3-11 10.97-2.4-1.68-7.17-2-12 5.54.15 9.46 5.25 15 5 1.61-2.33.83-5.28 1-8-1.42.21-2.56-.71-3-2-3.06.8-5.71-1.49-7-4-3.74 1.22-5.6 1.8-9-1 3.96-5.25-2-10.95-4-17 3.29.02 5.93-2.12 9-3 1.26-2.97 3.97-9.82-2-9-.93 1.14-1.08 2.55-1 4-3.14 1.03-2.85-2.22-4-4-2.01-.83-.3-3.71-2-5-2.76 1.79-8.87-.69-9 4z"/><path id="Bn" d="M78 217c-3.07.88-5.71 3.02-9 3 2 6.05 7.96 11.75 4 17 3.4 2.8 5.26 2.22 9 1 1.29 2.51 3.94 4.8 7 4 3.14 2.56 2.73-3.87 6-3l-3-9c-3.63 1.25-7.16.53-9-3-6.18 11.45-11.04-7.96 0-5 1.08-3.28-.28-6.63-1-10 1.33-3.94 9.27-3.27 6-8-3.36 2.25-6.86-1.06-10 1 2.79 3.33 4.31 8.65 0 12z"/><path id="Bo" d="M273 209c-1.92-9.73-10.26 1.63 0 0z"/><path id="Bp" d="M71 208c1.15 1.78.86 5.03 4 4-.08-1.45.07-2.86 1-4-.59-2.98-5.42-3.98-5 0z"/><path id="Bq" d="M256 207c-.43 5.27 5.79 7.31 4 12 2.77-.78 3.91 1.96 6 3-.29-1.68 1.31-3.32 3-3 1.46-7.86-9.29-6.4-8-14-2.2-.35-4.02.23-5 2z"/><path id="Br" d="M53 208c-13.41 4.28 7.89 12.51 0 0z"/><path id="Bs" d="M323 216c.37-12.06-16.19 2.04-6 4-2.28-4.06 2.95-6.06 6-4z"/><path id="Bt" d="M109 215c-3.06 1.55-5.32 3.55-6 7 2.88-2.77 6.26-3.73 10-1-1.19-2.08-3.32-3.58-4-6z"/><path id="Bu" d="M98 225c-.74-4.19-5.98-8-10-6 2.28 3.58 5.11 7.17 10 6z"/><path id="Bv" d="M277 223c.13 2.68 1.28 4.53 0 7 1.49 1.28 2.37-.01 4 0 2.73-.93 6.36-.46 7-4 3.62-1.44 4.5 2.61 7 3 3.52-4.85-4.73-6.22-2-11-5.24 2.47-9.56 5.88-16 5z"/><path id="Bw" d="M46 229c3.02-21.71-21.66 5.64 0 0z"/><path id="Bx" d="M55 219c-14.44-.64 3.84 12.66 0 0z"/><path id="By" d="M228 246c.57 5.32 8.69 12.92 2 17-.12 2.35 2.29 3.81 4 5-.78 2.54-5.16 4.56-2 8h5c-.37 3.44-2.31 7.24 1 10-12.06 5.92 6.92 24.83 12 10-2.33-3.92-.53-7.33 1-11 3.95 18.91 7.85-.35 12-4 1.42-8.18-7.31-1.85-10-7 1.59-4.4 6.74-10.09 2-14-2.09-1.99 2.81-4.84 1-8-4.25.95-4.4-3.44-3-6-4.04.78-7.24-2.47-9-5v-7c-6.06.28-4.82-7.2-8-10-2.87 1.21-8.98 2.16-8-3-2.88 1.88 1.44 5.98 4 5-3.72 2.85-3.85 8.09 1 10-3.01 2.94-3.08 6.25-2 10h-3m23 6c-2.03 4.57-.91 13.93-9 12 .4-3.56 4.91-6.11 1-10 2.45-1.45 5.43-.92 8-2m-10 21c-5.5 1.3-5.38-3.53-2-6 1.39 1.38 1.29 4.06 2 6m9 5c-2.93 7.27-12.13 4.11-8-4 1.62 3.42 5.06 3.59 8 4z"/><path id="Bz" d="M337 221c-11.89.46 3.78 11.13 0 0z"/><path id="CA" d="M148 224c-1.69.91-.92 4.69-4 4 .1 2.59 3.11 4.03 2 7 1.86-2.79 3.3-7.78 2-11z"/><path id="CB" d="M298 232c4.61 3.88 10.24-8.04 3-8 .79 3.37-.96 5.68-3 8z"/><path id="CC" d="M170 235c.78-1.63 3.45-4.11 2-6-3.17-.52-7.93-.9-10 2 2.53.85 7.43-.89 8 4z"/><path id="CD" d="M24 230c-12.92.45 4.59 12.07 0 0z"/><path id="CE" d="M102 231c-3.89-.4-.52 4.91-3 6 2.78 1.71 2.17 6.52 5 7 .06-3.71-1.82-9.07-2-13z"/><path id="CF" d="M244 241c1.76 2.53 4.96 5.78 9 5 3.56-1.38 5.81 3.97 9 1-4.75-2.89-4.29-8.82-1-13-8.17 1.73-6.48 13.78-17 7z"/><path id="CG" d="M272 233c-3.52-.45-3 5.44-7 4 1.2 2.57.21 4.34 0 7 3.41-2.68 5.34-6.78 7-11z"/><path id="CH" d="M35 234c-13.17.82 5.26 13.14 0 0z"/><path id="CI" d="M27 240c-11.39 4.46 7.73 10.49 0 0z"/><path id="CJ" d="M317 243c-11.56 2.44 6.49 9.81 0 0z"/><path id="CK" d="M130 250c.49-2.66 5.89-3.04 3-6-3.31-.19-5.96 1.72-9 0-1.17 4.19 3.25 4.81 6 6z"/><path id="CL" d="M274 249c.54-2.42-1.53-5.09-4-5-.62 2.66.77 5.9 4 5z"/><path id="CM" d="M251 252c-2.57 1.08-5.55.55-8 2 3.91 3.89-.6 6.44-1 10 8.09 1.93 6.97-7.43 9-12z"/><path id="CN" d="M315 252c-14.42 2.44 8.35 14.43 0 0z"/><path id="CO" d="M27 253c-1.48 13.21 13.08-1.52 0 0z"/><path id="CP" d="M94 253c-10.54 7.36 9.93 8.23 0 0z"/><path id="CQ" d="M134 295c2.58-2.91-.62-6.19-4-5 5.29-.78 1.65-3.87 2-8-2.59.65-4.35-.57-5-3-3.4-1.02-5.94 1.64-5 5-3.93 1.18-8.05 3.16-12 2 1.69-2.37 4.81-3.89 5-8 2.73 1.8 7.75 3.07 8-2h6c1.54.37 2.4-1.43 4-1 .88-4.83-.5-8.85-4-12-5.36-2.52-7.53-8.9-15-8-2.78 4.8-6.33 9.77-12 11 .56 3.88 1.77 10.96 7 10-.38 8-12.99 7.76-19 7-9.3-13.71-23.4 5.98-2 1 1.46 5.22-6.7.99-6 6-2.61-1.71-6.81-.12-8-4-5.37-.63-4.8 5-3 8-13.19 7.12 1.96 14.48 4 1 2.54.25 6.77 1.91 7-2 2.94-.76 4.11 1.86 5 4 2.84.62 5.62-2.17 5-5 4.8.15 13.4 6.54 15-1 3.35 3.71 7.65-.1 12 1-.69 3.06 2.5 3.33 3 6-17.86 5.03 17.21 12.83 12-3m-9-25c-5.51 1.36-11.14-.75-17-1 5.27-4.66 14.7-9.33 17 1z"/><path id="CR" d="M300 265c-15.2 2.11 2.76 12.81 4.07 1.07 6.67-11.27-8.07-13.84-4.07-1.07z"/><path id="CS" d="M295 258c-10.94 5.09 9.14 8.18 0 0z"/><path id="CT" d="M227 268c-1.77-3.15 1.68-7.13-2-9 .38 2.76-6.39 12.21 2 9z"/><path id="CU" d="M91 269c16.67 0-9.6-16.41-10-4 4.86.02 5.46 3.07 4 7 2.63 1.05 3.28 4.03 5 6 2.71-.31 5.29-3.3 6 1 8.56 2.7 5.62-9.89-1-5 .37-2.63-2.78-3.51-4-5z"/><path id="CV" d="M210 282c2.4 1.16 5.73-3.13 5-6-3.86-2.93-9.03-2.2-10-8 2.01-.61 9.76-3.81 5-5-2.59-.1-4.03-3.11-7-2 1.19 8.86-6.37 19.08-12 9-1.48 4.81 4.34 4.98 5 9 4.94-4.94 10.4-.34 14 3z"/><path id="CW" d="M129 263c3.5 3.15 4.88 7.17 4 12-1.6-.43-2.46 1.37-4 1 .44 1.29 1.58 2.21 3 2 1.65-1.28 5.5-2.53 3-5-1.91-.71-.51-2.84 0-4 .38-3.12-4.34-3.89-4-7-.66.19-1.97-.1-2 1z"/><path id="CX" d="M125 270c-2.3-10.33-11.73-5.66-17-1 5.86.25 11.49 2.36 17 1z"/><path id="CY" d="M157 271c5.19 1.83 6.47-5.29 4-8-1.58 2.23-4.09 4.92-4 8z"/><path id="CZ" d="M50 266c-13.67 2.05 6.74 11 0 0z"/><path id="Ca" d="M135 269c-.51 1.16-1.91 3.29 0 4 2.67.31 5.09-.1 7-2-2.06-1.53-4.55-5.43-7-2z"/><path id="Cb" d="M241 273c-.71-1.94-.61-4.62-2-6-3.38 2.47-3.5 7.3 2 6z"/><path id="Cc" d="M175 272c-2.01 1.16-5.56 1.85-5 5 2.84.62 5.62-2.17 5-5z"/><path id="Cd" d="M250 278c-2.94-.41-6.38-.58-8-4-4.13 8.11 5.07 11.27 8 4z"/><path id="Ce" d="M155 278c2.04 3.89-1.86 5.73-5 7 4.95 5.19-3.85 9.19 0 14 6.7-14.66 1.7 1.97 10 6 3.66.19.85-3.5-1-4 .36-2.55.52-7.07 4-7-1.76-3.44-.86-7.36 3-9-5.07-1.78-.87-7.22-4-10-1.93 2.07-4.69 1.73-7 3z"/><path id="Cf" d="M132 282c3.96 1.8-.18-2.32 0-4-1.42.21-2.56-.71-3-2h-6c-.25 5.07-5.27 3.8-8 2-.19 4.11-3.31 5.63-5 8 3.95 1.16 8.07-.82 12-2-.94-3.36 1.6-6.02 5-5 .65 2.43 2.41 3.65 5 3z"/><path id="Cg" d="M316 276c-3.07-.46-7.53 1.55-7 5-19.89 5.3 3.86 9.43 7-5z"/><path id="Ch" d="M68 279c-13.83-.57 4.22 12.35 0 0z"/><path id="Ci" d="M297 280c-12.27-.63 2.68 10.75 0 0z"/><path id="Cj" d="M168 282c1.29 4.37 11.08 4.66 10-1-3.68.66-6.14 2.72-10 1z"/><path id="Ck" d="M210 291c1.09-1.55.87-3.47 2-5-1.18-.15-2.06.43-3 1-1.45.08-2.86-.07-4-1-1.14 1.64-2.46 3.88-3 6 3.21.32 4.9-3.15 8-1z"/><path id="Cl" d="M284 291c-19.01 14.57 13.97 8.29 0 0z"/><path id="Cm" d="M111 295c-15.72 1.44 4.49 16.85 0 0z"/><path id="Cn" d="M96 296c-13.29 4.28 8.71 14.7 0 0z"/><path id="Co" d="M267 297c-15.59.23 7.77 13.82 0 0z"/><path id="Cp" d="M297 297c-3.36-.94-6.02 1.6-5 5 2.39-.06 4.86-2.67 5-5z"/><path id="Cq" d="M84 305c-4.4-17.9-12.22 14.24 2 11 2.39-4.49 8.63-14.02-2-11z"/><path id="Cr" d="M232 302c-2.25 3.48 1.87 5.3 1 9 1.02 2.27 4.57 5.26 1 7-.02 1.74.21 3.6-1 5 7.44.51 3.71-8.19 7-12-7.34-1.42 3.59-10.33-5-11-.28 1.23-1.72 2.27-3 2z"/><path id="Cs" d="M253 310c4.28-12.98-9.7-8.77-6 2 5.52 8.7 19.78 3.6 6-2z"/><path id="Ct" d="M286 307c11.39-3.04-4.19-10.49 0 0z"/><path id="Cu" d="M178 302c-12.07 1.64 4.72 12.05 0 0z"/><path id="Cv" d="M180 305c1.94 19.43 18.54-9.38 0 0z"/><path id="Cw" d="M274 304c-15.88 5.69 2.21 15.73 0 0z"/><path id="Cx" d="M74 312c4.4-10.75-11.45-4.16 0 0z"/><path id="Cy" d="M113 306c-12.25 11.92 28.31 16.46 0 0z"/><path id="Cz" d="M133 314c-2.53-3.22.42-10.04-7-8-1.38 5.35 1.06 14.69 7 8z"/><path id="DA" d="M140 311c-17.89 10.65 10.76 18.28 0 0z"/><path id="DB" d="M234 318c3.57-1.74.02-4.73-1-7-2.79 1.87-6.64 5.24-7 9 2.17-2.11 5.01-2.29 8-2z"/><path id="DC" d="M109 321c1.6-12.91-12.69 1.41 0 0z"/><path id="DD" d="M192 320c-13.69-14.78-5.16 14.9 0 0z"/><path id="DE" d="M253 324c.44-18.08-21.93 3.7 0 0z"/><path id="DF" d="M177 322c-14.08-16.27-6.41 19.87 0 0z"/><path id="DG" d="M124 329c12.23-8.27-8.31-11.48-1 1-10.07 5.52 9.28 8.4 1-1z"/><path id="DH" d="M205 327c-2.83-11.8-17.59-3.9-6 4-5.02 2.37-3.49 7.32-4 12 8.18 1.88 5.88-7.52 5-12 2.9 1.51 6.09-.39 5-4z"/><path id="DI" d="M110 333c.84-12.42-12.26-7.62-19-12 2.61 7.7 13.15 8.05 19 12z"/><path id="DJ" d="M142 326c-1.19 23.51 16.18 7.38 0 0z"/><path id="DK" d="M253 328c-3.26-2.01-5.9.54-6 4 2.16-.56 5.92-1.39 6-4z"/><path id="DL" d="M178 331c-12.19-.13 3.8 10.45 0 0z"/><path id="DM" d="M244 332c-2.93.05-8.75-.17-8 4 2.76-.46 7.58-.75 8-4z"/><path id="DN" d="M140 333c-11.87.18 4.57 10.54 0 0z"/><path id="DO" d="M220 341c19.28-.59 2.72-15.78 0 0z"/><path id="DP" d="M166 338c-7.2-5.58-17.34-3.25-15 7 5.62.19 11.57 3.38 17 1-1.43-2.45-2.5-5-2-8z"/><path id="DQ" d="M179 337c-11.55 5 8.21 9.84 0 0z"/><path id="DR" d="M188 338c-10.06 8.04 9.81 7.71 0 0z"/><path id="DS" d="M181 346c-4.08 1.47-6.9-4.07-10 0 2.21 1.72 7.72 1.54 10 0z"/></defs></svg>